<?xml version="1.0" encoding="utf-8" standalone="no"?>
<!DOCTYPE svg PUBLIC "-//W3C//DTD SVG 1.1//EN"
  "http://www.w3.org/Graphics/SVG/1.1/DTD/svg11.dtd">
<!-- Created with matplotlib (https://matplotlib.org/) -->
<svg height="936pt" version="1.1" viewBox="0 0 1224 936" width="1224pt" xmlns="http://www.w3.org/2000/svg" xmlns:xlink="http://www.w3.org/1999/xlink">
 <defs>
  <style type="text/css">
*{stroke-linecap:butt;stroke-linejoin:round;}
  </style>
 </defs>
 <g id="figure_1">
  <g id="patch_1">
   <path d="M 0 936 
L 1224 936 
L 1224 0 
L 0 0 
z
" style="fill:#ffffff;"/>
  </g>
  <g id="axes_1">
   <g id="patch_2">
    <path d="M 153 406.77 
L 1101.6 406.77 
L 1101.6 112.32 
L 153 112.32 
z
" style="fill:#ffffff;"/>
   </g>
   <g id="matplotlib.axis_1">
    <g id="xtick_1">
     <g id="line2d_1">
      <defs>
       <path d="M 0 0 
L 0 3.5 
" id="m33e3a254bf" style="stroke:#000000;stroke-width:0.8;"/>
      </defs>
      <g>
       <use style="stroke:#000000;stroke-width:0.8;" x="196.118182" xlink:href="#m33e3a254bf" y="406.77"/>
      </g>
     </g>
     <g id="text_1">
      <!-- 0 -->
      <defs>
       <path d="M 31.78125 66.40625 
Q 24.171875 66.40625 20.328125 58.90625 
Q 16.5 51.421875 16.5 36.375 
Q 16.5 21.390625 20.328125 13.890625 
Q 24.171875 6.390625 31.78125 6.390625 
Q 39.453125 6.390625 43.28125 13.890625 
Q 47.125 21.390625 47.125 36.375 
Q 47.125 51.421875 43.28125 58.90625 
Q 39.453125 66.40625 31.78125 66.40625 
z
M 31.78125 74.21875 
Q 44.046875 74.21875 50.515625 64.515625 
Q 56.984375 54.828125 56.984375 36.375 
Q 56.984375 17.96875 50.515625 8.265625 
Q 44.046875 -1.421875 31.78125 -1.421875 
Q 19.53125 -1.421875 13.0625 8.265625 
Q 6.59375 17.96875 6.59375 36.375 
Q 6.59375 54.828125 13.0625 64.515625 
Q 19.53125 74.21875 31.78125 74.21875 
z
" id="DejaVuSans-48"/>
      </defs>
      <g transform="translate(191.028182 425.9275)scale(0.16 -0.16)">
       <use xlink:href="#DejaVuSans-48"/>
      </g>
     </g>
    </g>
    <g id="xtick_2">
     <g id="line2d_2">
      <g>
       <use style="stroke:#000000;stroke-width:0.8;" x="334.761853" xlink:href="#m33e3a254bf" y="406.77"/>
      </g>
     </g>
     <g id="text_2">
      <!-- 50 -->
      <defs>
       <path d="M 10.796875 72.90625 
L 49.515625 72.90625 
L 49.515625 64.59375 
L 19.828125 64.59375 
L 19.828125 46.734375 
Q 21.96875 47.46875 24.109375 47.828125 
Q 26.265625 48.1875 28.421875 48.1875 
Q 40.625 48.1875 47.75 41.5 
Q 54.890625 34.8125 54.890625 23.390625 
Q 54.890625 11.625 47.5625 5.09375 
Q 40.234375 -1.421875 26.90625 -1.421875 
Q 22.3125 -1.421875 17.546875 -0.640625 
Q 12.796875 0.140625 7.71875 1.703125 
L 7.71875 11.625 
Q 12.109375 9.234375 16.796875 8.0625 
Q 21.484375 6.890625 26.703125 6.890625 
Q 35.15625 6.890625 40.078125 11.328125 
Q 45.015625 15.765625 45.015625 23.390625 
Q 45.015625 31 40.078125 35.4375 
Q 35.15625 39.890625 26.703125 39.890625 
Q 22.75 39.890625 18.8125 39.015625 
Q 14.890625 38.140625 10.796875 36.28125 
z
" id="DejaVuSans-53"/>
      </defs>
      <g transform="translate(324.581853 425.9275)scale(0.16 -0.16)">
       <use xlink:href="#DejaVuSans-53"/>
       <use x="63.623047" xlink:href="#DejaVuSans-48"/>
      </g>
     </g>
    </g>
    <g id="xtick_3">
     <g id="line2d_3">
      <g>
       <use style="stroke:#000000;stroke-width:0.8;" x="473.405525" xlink:href="#m33e3a254bf" y="406.77"/>
      </g>
     </g>
     <g id="text_3">
      <!-- 100 -->
      <defs>
       <path d="M 12.40625 8.296875 
L 28.515625 8.296875 
L 28.515625 63.921875 
L 10.984375 60.40625 
L 10.984375 69.390625 
L 28.421875 72.90625 
L 38.28125 72.90625 
L 38.28125 8.296875 
L 54.390625 8.296875 
L 54.390625 0 
L 12.40625 0 
z
" id="DejaVuSans-49"/>
      </defs>
      <g transform="translate(458.135525 425.9275)scale(0.16 -0.16)">
       <use xlink:href="#DejaVuSans-49"/>
       <use x="63.623047" xlink:href="#DejaVuSans-48"/>
       <use x="127.246094" xlink:href="#DejaVuSans-48"/>
      </g>
     </g>
    </g>
    <g id="xtick_4">
     <g id="line2d_4">
      <g>
       <use style="stroke:#000000;stroke-width:0.8;" x="612.049196" xlink:href="#m33e3a254bf" y="406.77"/>
      </g>
     </g>
     <g id="text_4">
      <!-- 150 -->
      <g transform="translate(596.779196 425.9275)scale(0.16 -0.16)">
       <use xlink:href="#DejaVuSans-49"/>
       <use x="63.623047" xlink:href="#DejaVuSans-53"/>
       <use x="127.246094" xlink:href="#DejaVuSans-48"/>
      </g>
     </g>
    </g>
    <g id="xtick_5">
     <g id="line2d_5">
      <g>
       <use style="stroke:#000000;stroke-width:0.8;" x="750.692868" xlink:href="#m33e3a254bf" y="406.77"/>
      </g>
     </g>
     <g id="text_5">
      <!-- 200 -->
      <defs>
       <path d="M 19.1875 8.296875 
L 53.609375 8.296875 
L 53.609375 0 
L 7.328125 0 
L 7.328125 8.296875 
Q 12.9375 14.109375 22.625 23.890625 
Q 32.328125 33.6875 34.8125 36.53125 
Q 39.546875 41.84375 41.421875 45.53125 
Q 43.3125 49.21875 43.3125 52.78125 
Q 43.3125 58.59375 39.234375 62.25 
Q 35.15625 65.921875 28.609375 65.921875 
Q 23.96875 65.921875 18.8125 64.3125 
Q 13.671875 62.703125 7.8125 59.421875 
L 7.8125 69.390625 
Q 13.765625 71.78125 18.9375 73 
Q 24.125 74.21875 28.421875 74.21875 
Q 39.75 74.21875 46.484375 68.546875 
Q 53.21875 62.890625 53.21875 53.421875 
Q 53.21875 48.921875 51.53125 44.890625 
Q 49.859375 40.875 45.40625 35.40625 
Q 44.1875 33.984375 37.640625 27.21875 
Q 31.109375 20.453125 19.1875 8.296875 
z
" id="DejaVuSans-50"/>
      </defs>
      <g transform="translate(735.422868 425.9275)scale(0.16 -0.16)">
       <use xlink:href="#DejaVuSans-50"/>
       <use x="63.623047" xlink:href="#DejaVuSans-48"/>
       <use x="127.246094" xlink:href="#DejaVuSans-48"/>
      </g>
     </g>
    </g>
    <g id="xtick_6">
     <g id="line2d_6">
      <g>
       <use style="stroke:#000000;stroke-width:0.8;" x="889.336539" xlink:href="#m33e3a254bf" y="406.77"/>
      </g>
     </g>
     <g id="text_6">
      <!-- 250 -->
      <g transform="translate(874.066539 425.9275)scale(0.16 -0.16)">
       <use xlink:href="#DejaVuSans-50"/>
       <use x="63.623047" xlink:href="#DejaVuSans-53"/>
       <use x="127.246094" xlink:href="#DejaVuSans-48"/>
      </g>
     </g>
    </g>
    <g id="xtick_7">
     <g id="line2d_7">
      <g>
       <use style="stroke:#000000;stroke-width:0.8;" x="1027.98021" xlink:href="#m33e3a254bf" y="406.77"/>
      </g>
     </g>
     <g id="text_7">
      <!-- 300 -->
      <defs>
       <path d="M 40.578125 39.3125 
Q 47.65625 37.796875 51.625 33 
Q 55.609375 28.21875 55.609375 21.1875 
Q 55.609375 10.40625 48.1875 4.484375 
Q 40.765625 -1.421875 27.09375 -1.421875 
Q 22.515625 -1.421875 17.65625 -0.515625 
Q 12.796875 0.390625 7.625 2.203125 
L 7.625 11.71875 
Q 11.71875 9.328125 16.59375 8.109375 
Q 21.484375 6.890625 26.8125 6.890625 
Q 36.078125 6.890625 40.9375 10.546875 
Q 45.796875 14.203125 45.796875 21.1875 
Q 45.796875 27.640625 41.28125 31.265625 
Q 36.765625 34.90625 28.71875 34.90625 
L 20.21875 34.90625 
L 20.21875 43.015625 
L 29.109375 43.015625 
Q 36.375 43.015625 40.234375 45.921875 
Q 44.09375 48.828125 44.09375 54.296875 
Q 44.09375 59.90625 40.109375 62.90625 
Q 36.140625 65.921875 28.71875 65.921875 
Q 24.65625 65.921875 20.015625 65.03125 
Q 15.375 64.15625 9.8125 62.3125 
L 9.8125 71.09375 
Q 15.4375 72.65625 20.34375 73.4375 
Q 25.25 74.21875 29.59375 74.21875 
Q 40.828125 74.21875 47.359375 69.109375 
Q 53.90625 64.015625 53.90625 55.328125 
Q 53.90625 49.265625 50.4375 45.09375 
Q 46.96875 40.921875 40.578125 39.3125 
z
" id="DejaVuSans-51"/>
      </defs>
      <g transform="translate(1012.71021 425.9275)scale(0.16 -0.16)">
       <use xlink:href="#DejaVuSans-51"/>
       <use x="63.623047" xlink:href="#DejaVuSans-48"/>
       <use x="127.246094" xlink:href="#DejaVuSans-48"/>
      </g>
     </g>
    </g>
    <g id="text_8">
     <!-- Эпохи обучения -->
     <defs>
      <path d="M 5.421875 15.921875 
Q 15.71875 6.6875 28.21875 6.6875 
Q 41.109375 6.6875 46.921875 13.625 
Q 52.734375 20.5625 53.8125 32.234375 
L 14.84375 32.234375 
L 14.84375 40.53125 
L 53.8125 40.53125 
Q 52.734375 52.203125 46.921875 59.15625 
Q 41.109375 66.109375 28.21875 66.109375 
Q 15.71875 66.109375 5.421875 56.890625 
L 5.421875 67.28125 
Q 15.578125 74.21875 28.8125 74.21875 
Q 45.171875 74.21875 54.6875 64.078125 
Q 64.203125 53.953125 64.203125 36.421875 
Q 64.203125 18.84375 54.6875 8.703125 
Q 45.171875 -1.421875 28.8125 -1.421875 
Q 15.765625 -1.421875 5.421875 5.609375 
z
" id="DejaVuSans-1069"/>
      <path d="M 56.296875 54.6875 
L 56.296875 0 
L 47.265625 0 
L 47.265625 47.515625 
L 18.109375 47.515625 
L 18.109375 0 
L 9.078125 0 
L 9.078125 54.6875 
z
" id="DejaVuSans-1087"/>
      <path d="M 30.609375 48.390625 
Q 23.390625 48.390625 19.1875 42.75 
Q 14.984375 37.109375 14.984375 27.296875 
Q 14.984375 17.484375 19.15625 11.84375 
Q 23.34375 6.203125 30.609375 6.203125 
Q 37.796875 6.203125 41.984375 11.859375 
Q 46.1875 17.53125 46.1875 27.296875 
Q 46.1875 37.015625 41.984375 42.703125 
Q 37.796875 48.390625 30.609375 48.390625 
z
M 30.609375 56 
Q 42.328125 56 49.015625 48.375 
Q 55.71875 40.765625 55.71875 27.296875 
Q 55.71875 13.875 49.015625 6.21875 
Q 42.328125 -1.421875 30.609375 -1.421875 
Q 18.84375 -1.421875 12.171875 6.21875 
Q 5.515625 13.875 5.515625 27.296875 
Q 5.515625 40.765625 12.171875 48.375 
Q 18.84375 56 30.609375 56 
z
" id="DejaVuSans-1086"/>
      <path d="M 54.890625 54.6875 
L 35.109375 28.078125 
L 55.90625 0 
L 45.3125 0 
L 29.390625 21.484375 
L 13.484375 0 
L 2.875 0 
L 24.125 28.609375 
L 4.6875 54.6875 
L 15.28125 54.6875 
L 29.78125 35.203125 
L 44.28125 54.6875 
z
" id="DejaVuSans-1093"/>
      <path d="M 55.90625 54.6875 
L 55.90625 0 
L 46.96875 0 
L 46.96875 43.890625 
L 20.609375 0 
L 9.078125 0 
L 9.078125 54.6875 
L 18.015625 54.6875 
L 18.015625 10.890625 
L 44.34375 54.6875 
z
" id="DejaVuSans-1080"/>
      <path id="DejaVuSans-32"/>
      <path d="M 31.109375 56 
Q 42.828125 56 49.515625 48.375 
Q 56.203125 40.765625 56.203125 27.296875 
Q 56.203125 13.875 49.515625 6.21875 
Q 42.828125 -1.421875 31.109375 -1.421875 
Q 19.34375 -1.421875 12.84375 6 
Q 6.34375 13.421875 6 27.296875 
L 5.71875 38.484375 
Q 5.46875 44.28125 5.46875 46.296875 
Q 5.46875 54.109375 8.296875 59.859375 
Q 12.75 68.890625 20.4375 72.796875 
Q 28.125 76.703125 41.015625 76.8125 
Q 46.96875 76.859375 49.609375 77.6875 
L 52.09375 70.5625 
Q 49.703125 69.578125 47.515625 69.53125 
L 35.296875 68.703125 
Q 29.15625 68.265625 25.4375 66.109375 
Q 15.71875 60.40625 14.796875 52.9375 
L 14.453125 50.203125 
Q 20.796875 56 31.109375 56 
z
M 31.109375 48.390625 
Q 23.875 48.390625 19.671875 42.75 
Q 15.484375 37.109375 15.484375 27.296875 
Q 15.484375 17.484375 19.65625 11.84375 
Q 23.828125 6.203125 31.109375 6.203125 
Q 38.28125 6.203125 42.484375 11.859375 
Q 46.6875 17.53125 46.6875 27.296875 
Q 46.6875 37.015625 42.484375 42.703125 
Q 38.28125 48.390625 31.109375 48.390625 
z
" id="DejaVuSans-1073"/>
      <path d="M 32.171875 -5.078125 
Q 28.375 -14.84375 24.75 -17.8125 
Q 21.140625 -20.796875 15.09375 -20.796875 
L 7.90625 -20.796875 
L 7.90625 -13.28125 
L 13.1875 -13.28125 
Q 16.890625 -13.28125 18.9375 -11.515625 
Q 21 -9.765625 23.484375 -3.21875 
L 25.09375 0.875 
L 2.984375 54.6875 
L 12.5 54.6875 
L 29.59375 11.921875 
L 46.6875 54.6875 
L 56.203125 54.6875 
z
" id="DejaVuSans-1091"/>
      <path d="M 41.015625 0 
L 41.015625 23 
L 24.265625 23 
Q 16.796875 23 11.8125 27.640625 
Q 7.328125 31.84375 7.328125 40.828125 
L 7.328125 54.6875 
L 16.3125 54.6875 
L 16.3125 41.65625 
Q 16.3125 35.9375 18.84375 33.0625 
Q 21.4375 30.171875 26.515625 30.171875 
L 41.015625 30.171875 
L 41.015625 54.6875 
L 50 54.6875 
L 50 0 
z
" id="DejaVuSans-1095"/>
      <path d="M 56.203125 29.59375 
L 56.203125 25.203125 
L 14.890625 25.203125 
Q 15.484375 15.921875 20.484375 11.0625 
Q 25.484375 6.203125 34.421875 6.203125 
Q 39.59375 6.203125 44.453125 7.46875 
Q 49.3125 8.734375 54.109375 11.28125 
L 54.109375 2.78125 
Q 49.265625 0.734375 44.1875 -0.34375 
Q 39.109375 -1.421875 33.890625 -1.421875 
Q 20.796875 -1.421875 13.15625 6.1875 
Q 5.515625 13.8125 5.515625 26.8125 
Q 5.515625 40.234375 12.765625 48.109375 
Q 20.015625 56 32.328125 56 
Q 43.359375 56 49.78125 48.890625 
Q 56.203125 41.796875 56.203125 29.59375 
z
M 47.21875 32.234375 
Q 47.125 39.59375 43.09375 43.984375 
Q 39.0625 48.390625 32.421875 48.390625 
Q 24.90625 48.390625 20.390625 44.140625 
Q 15.875 39.890625 15.1875 32.171875 
z
" id="DejaVuSans-1077"/>
      <path d="M 9.078125 54.6875 
L 18.109375 54.6875 
L 18.109375 32.375 
L 47.265625 32.375 
L 47.265625 54.6875 
L 56.296875 54.6875 
L 56.296875 0 
L 47.265625 0 
L 47.265625 25.203125 
L 18.109375 25.203125 
L 18.109375 0 
L 9.078125 0 
z
" id="DejaVuSans-1085"/>
      <path d="M 18.453125 38.921875 
Q 18.453125 34.859375 21.578125 32.5625 
Q 24.703125 30.28125 30.515625 30.28125 
L 42.625 30.28125 
L 42.625 47.515625 
L 30.515625 47.515625 
Q 24.703125 47.515625 21.578125 45.265625 
Q 18.453125 43.015625 18.453125 38.921875 
z
M 5.671875 0 
L 22.359375 23.96875 
Q 16.703125 25.25 12.9375 28.59375 
Q 9.1875 31.9375 9.1875 38.921875 
Q 9.1875 46.828125 14.421875 50.75 
Q 19.671875 54.6875 30.28125 54.6875 
L 51.65625 54.6875 
L 51.65625 0 
L 42.625 0 
L 42.625 23.09375 
L 31.453125 23.09375 
L 15.328125 0 
z
" id="DejaVuSans-1103"/>
     </defs>
     <g transform="translate(559.65875 445.685)scale(0.16 -0.16)">
      <use xlink:href="#DejaVuSans-1069"/>
      <use x="69.824219" xlink:href="#DejaVuSans-1087"/>
      <use x="135.205078" xlink:href="#DejaVuSans-1086"/>
      <use x="196.386719" xlink:href="#DejaVuSans-1093"/>
      <use x="255.566406" xlink:href="#DejaVuSans-1080"/>
      <use x="320.556641" xlink:href="#DejaVuSans-32"/>
      <use x="352.34375" xlink:href="#DejaVuSans-1086"/>
      <use x="413.525391" xlink:href="#DejaVuSans-1073"/>
      <use x="475.195312" xlink:href="#DejaVuSans-1091"/>
      <use x="534.375" xlink:href="#DejaVuSans-1095"/>
      <use x="593.457031" xlink:href="#DejaVuSans-1077"/>
      <use x="654.980469" xlink:href="#DejaVuSans-1085"/>
      <use x="720.361328" xlink:href="#DejaVuSans-1080"/>
      <use x="785.351562" xlink:href="#DejaVuSans-1103"/>
     </g>
    </g>
   </g>
   <g id="matplotlib.axis_2">
    <g id="ytick_1">
     <g id="line2d_8">
      <defs>
       <path d="M 0 0 
L -3.5 0 
" id="m979df6e9a7" style="stroke:#000000;stroke-width:0.8;"/>
      </defs>
      <g>
       <use style="stroke:#000000;stroke-width:0.8;" x="153" xlink:href="#m979df6e9a7" y="361.086796"/>
      </g>
     </g>
     <g id="text_9">
      <!-- 0.63 -->
      <defs>
       <path d="M 10.6875 12.40625 
L 21 12.40625 
L 21 0 
L 10.6875 0 
z
" id="DejaVuSans-46"/>
       <path d="M 33.015625 40.375 
Q 26.375 40.375 22.484375 35.828125 
Q 18.609375 31.296875 18.609375 23.390625 
Q 18.609375 15.53125 22.484375 10.953125 
Q 26.375 6.390625 33.015625 6.390625 
Q 39.65625 6.390625 43.53125 10.953125 
Q 47.40625 15.53125 47.40625 23.390625 
Q 47.40625 31.296875 43.53125 35.828125 
Q 39.65625 40.375 33.015625 40.375 
z
M 52.59375 71.296875 
L 52.59375 62.3125 
Q 48.875 64.0625 45.09375 64.984375 
Q 41.3125 65.921875 37.59375 65.921875 
Q 27.828125 65.921875 22.671875 59.328125 
Q 17.53125 52.734375 16.796875 39.40625 
Q 19.671875 43.65625 24.015625 45.921875 
Q 28.375 48.1875 33.59375 48.1875 
Q 44.578125 48.1875 50.953125 41.515625 
Q 57.328125 34.859375 57.328125 23.390625 
Q 57.328125 12.15625 50.6875 5.359375 
Q 44.046875 -1.421875 33.015625 -1.421875 
Q 20.359375 -1.421875 13.671875 8.265625 
Q 6.984375 17.96875 6.984375 36.375 
Q 6.984375 53.65625 15.1875 63.9375 
Q 23.390625 74.21875 37.203125 74.21875 
Q 40.921875 74.21875 44.703125 73.484375 
Q 48.484375 72.75 52.59375 71.296875 
z
" id="DejaVuSans-54"/>
      </defs>
      <g transform="translate(110.375 367.165546)scale(0.16 -0.16)">
       <use xlink:href="#DejaVuSans-48"/>
       <use x="63.623047" xlink:href="#DejaVuSans-46"/>
       <use x="95.410156" xlink:href="#DejaVuSans-54"/>
       <use x="159.033203" xlink:href="#DejaVuSans-51"/>
      </g>
     </g>
    </g>
    <g id="ytick_2">
     <g id="line2d_9">
      <g>
       <use style="stroke:#000000;stroke-width:0.8;" x="153" xlink:href="#m979df6e9a7" y="310.089177"/>
      </g>
     </g>
     <g id="text_10">
      <!-- 0.64 -->
      <defs>
       <path d="M 37.796875 64.3125 
L 12.890625 25.390625 
L 37.796875 25.390625 
z
M 35.203125 72.90625 
L 47.609375 72.90625 
L 47.609375 25.390625 
L 58.015625 25.390625 
L 58.015625 17.1875 
L 47.609375 17.1875 
L 47.609375 0 
L 37.796875 0 
L 37.796875 17.1875 
L 4.890625 17.1875 
L 4.890625 26.703125 
z
" id="DejaVuSans-52"/>
      </defs>
      <g transform="translate(110.375 316.167927)scale(0.16 -0.16)">
       <use xlink:href="#DejaVuSans-48"/>
       <use x="63.623047" xlink:href="#DejaVuSans-46"/>
       <use x="95.410156" xlink:href="#DejaVuSans-54"/>
       <use x="159.033203" xlink:href="#DejaVuSans-52"/>
      </g>
     </g>
    </g>
    <g id="ytick_3">
     <g id="line2d_10">
      <g>
       <use style="stroke:#000000;stroke-width:0.8;" x="153" xlink:href="#m979df6e9a7" y="259.091559"/>
      </g>
     </g>
     <g id="text_11">
      <!-- 0.65 -->
      <g transform="translate(110.375 265.170309)scale(0.16 -0.16)">
       <use xlink:href="#DejaVuSans-48"/>
       <use x="63.623047" xlink:href="#DejaVuSans-46"/>
       <use x="95.410156" xlink:href="#DejaVuSans-54"/>
       <use x="159.033203" xlink:href="#DejaVuSans-53"/>
      </g>
     </g>
    </g>
    <g id="ytick_4">
     <g id="line2d_11">
      <g>
       <use style="stroke:#000000;stroke-width:0.8;" x="153" xlink:href="#m979df6e9a7" y="208.09394"/>
      </g>
     </g>
     <g id="text_12">
      <!-- 0.66 -->
      <g transform="translate(110.375 214.17269)scale(0.16 -0.16)">
       <use xlink:href="#DejaVuSans-48"/>
       <use x="63.623047" xlink:href="#DejaVuSans-46"/>
       <use x="95.410156" xlink:href="#DejaVuSans-54"/>
       <use x="159.033203" xlink:href="#DejaVuSans-54"/>
      </g>
     </g>
    </g>
    <g id="ytick_5">
     <g id="line2d_12">
      <g>
       <use style="stroke:#000000;stroke-width:0.8;" x="153" xlink:href="#m979df6e9a7" y="157.096322"/>
      </g>
     </g>
     <g id="text_13">
      <!-- 0.67 -->
      <defs>
       <path d="M 8.203125 72.90625 
L 55.078125 72.90625 
L 55.078125 68.703125 
L 28.609375 0 
L 18.3125 0 
L 43.21875 64.59375 
L 8.203125 64.59375 
z
" id="DejaVuSans-55"/>
      </defs>
      <g transform="translate(110.375 163.175072)scale(0.16 -0.16)">
       <use xlink:href="#DejaVuSans-48"/>
       <use x="63.623047" xlink:href="#DejaVuSans-46"/>
       <use x="95.410156" xlink:href="#DejaVuSans-54"/>
       <use x="159.033203" xlink:href="#DejaVuSans-55"/>
      </g>
     </g>
    </g>
    <g id="text_14">
     <!-- Ошибка $Categorical$ $Crossentropy$ -->
     <defs>
      <path d="M 39.40625 66.21875 
Q 28.65625 66.21875 22.328125 58.203125 
Q 16.015625 50.203125 16.015625 36.375 
Q 16.015625 22.609375 22.328125 14.59375 
Q 28.65625 6.59375 39.40625 6.59375 
Q 50.140625 6.59375 56.421875 14.59375 
Q 62.703125 22.609375 62.703125 36.375 
Q 62.703125 50.203125 56.421875 58.203125 
Q 50.140625 66.21875 39.40625 66.21875 
z
M 39.40625 74.21875 
Q 54.734375 74.21875 63.90625 63.9375 
Q 73.09375 53.65625 73.09375 36.375 
Q 73.09375 19.140625 63.90625 8.859375 
Q 54.734375 -1.421875 39.40625 -1.421875 
Q 24.03125 -1.421875 14.8125 8.828125 
Q 5.609375 19.09375 5.609375 36.375 
Q 5.609375 53.65625 14.8125 63.9375 
Q 24.03125 74.21875 39.40625 74.21875 
z
" id="DejaVuSans-1054"/>
      <path d="M 50.25 7.171875 
L 73.390625 7.171875 
L 73.390625 54.6875 
L 82.421875 54.6875 
L 82.421875 0 
L 9.078125 0 
L 9.078125 54.6875 
L 18.109375 54.6875 
L 18.109375 7.171875 
L 41.21875 7.171875 
L 41.21875 54.6875 
L 50.25 54.6875 
z
" id="DejaVuSans-1096"/>
      <path d="M 9.078125 54.6875 
L 18.015625 54.6875 
L 18.015625 29 
L 43.359375 54.6875 
L 54.390625 54.6875 
L 33.5 33.546875 
L 57.078125 0 
L 47.015625 0 
L 27.640625 27.59375 
L 18.015625 17.828125 
L 18.015625 0 
L 9.078125 0 
z
" id="DejaVuSans-1082"/>
      <path d="M 34.28125 27.484375 
Q 23.390625 27.484375 19.1875 25 
Q 14.984375 22.515625 14.984375 16.5 
Q 14.984375 11.71875 18.140625 8.90625 
Q 21.296875 6.109375 26.703125 6.109375 
Q 34.1875 6.109375 38.703125 11.40625 
Q 43.21875 16.703125 43.21875 25.484375 
L 43.21875 27.484375 
z
M 52.203125 31.203125 
L 52.203125 0 
L 43.21875 0 
L 43.21875 8.296875 
Q 40.140625 3.328125 35.546875 0.953125 
Q 30.953125 -1.421875 24.3125 -1.421875 
Q 15.921875 -1.421875 10.953125 3.296875 
Q 6 8.015625 6 15.921875 
Q 6 25.140625 12.171875 29.828125 
Q 18.359375 34.515625 30.609375 34.515625 
L 43.21875 34.515625 
L 43.21875 35.40625 
Q 43.21875 41.609375 39.140625 45 
Q 35.0625 48.390625 27.6875 48.390625 
Q 23 48.390625 18.546875 47.265625 
Q 14.109375 46.140625 10.015625 43.890625 
L 10.015625 52.203125 
Q 14.9375 54.109375 19.578125 55.046875 
Q 24.21875 56 28.609375 56 
Q 40.484375 56 46.34375 49.84375 
Q 52.203125 43.703125 52.203125 31.203125 
z
" id="DejaVuSans-1072"/>
      <path d="M 69.484375 67.28125 
L 67.484375 56.890625 
Q 62.796875 61.625 57.546875 63.921875 
Q 52.296875 66.21875 46.1875 66.21875 
Q 37.84375 66.21875 31.515625 62.203125 
Q 25.203125 58.203125 20.609375 50 
Q 17.671875 44.734375 16.125 38.84375 
Q 14.59375 32.953125 14.59375 27 
Q 14.59375 17.046875 19.75 11.8125 
Q 24.90625 6.59375 34.71875 6.59375 
Q 41.5 6.59375 47.75 8.765625 
Q 54 10.9375 59.90625 15.28125 
L 57.625 3.609375 
Q 51.8125 1.125 45.875 -0.140625 
Q 39.9375 -1.421875 33.984375 -1.421875 
Q 19.96875 -1.421875 12.078125 6.1875 
Q 4.203125 13.8125 4.203125 27.390625 
Q 4.203125 36.078125 7.203125 44.46875 
Q 10.203125 52.875 15.828125 59.8125 
Q 21.78125 67.1875 29.421875 70.703125 
Q 37.0625 74.21875 47.21875 74.21875 
Q 53.46875 74.21875 59.0625 72.484375 
Q 64.65625 70.75 69.484375 67.28125 
z
" id="DejaVuSans-Oblique-67"/>
      <path d="M 53.71875 31.203125 
L 47.609375 0 
L 38.625 0 
L 40.28125 8.296875 
Q 36.328125 3.421875 31.265625 1 
Q 26.21875 -1.421875 20.015625 -1.421875 
Q 13.03125 -1.421875 8.5625 2.84375 
Q 4.109375 7.125 4.109375 13.8125 
Q 4.109375 23.390625 11.75 28.953125 
Q 19.390625 34.515625 32.8125 34.515625 
L 45.3125 34.515625 
L 45.796875 36.921875 
Q 45.90625 37.3125 45.953125 37.765625 
Q 46 38.234375 46 39.203125 
Q 46 43.5625 42.453125 45.96875 
Q 38.921875 48.390625 32.515625 48.390625 
Q 28.125 48.390625 23.5 47.265625 
Q 18.890625 46.140625 14.015625 43.890625 
L 15.578125 52.203125 
Q 20.65625 54.109375 25.515625 55.046875 
Q 30.375 56 34.90625 56 
Q 44.578125 56 49.625 51.796875 
Q 54.6875 47.609375 54.6875 39.59375 
Q 54.6875 37.984375 54.4375 35.8125 
Q 54.203125 33.640625 53.71875 31.203125 
z
M 44 27.484375 
L 35.015625 27.484375 
Q 23.96875 27.484375 18.671875 24.53125 
Q 13.375 21.578125 13.375 15.375 
Q 13.375 11.078125 16.078125 8.640625 
Q 18.796875 6.203125 23.578125 6.203125 
Q 30.90625 6.203125 36.375 11.453125 
Q 41.84375 16.703125 43.609375 25.484375 
z
" id="DejaVuSans-Oblique-97"/>
      <path d="M 42.28125 54.6875 
L 40.921875 47.703125 
L 23 47.703125 
L 17.1875 18.015625 
Q 16.890625 16.359375 16.75 15.234375 
Q 16.609375 14.109375 16.609375 13.484375 
Q 16.609375 10.359375 18.484375 8.9375 
Q 20.359375 7.515625 24.515625 7.515625 
L 33.59375 7.515625 
L 32.078125 0 
L 23.484375 0 
Q 15.484375 0 11.546875 3.125 
Q 7.625 6.25 7.625 12.59375 
Q 7.625 13.71875 7.765625 15.0625 
Q 7.90625 16.40625 8.203125 18.015625 
L 14.015625 47.703125 
L 6.390625 47.703125 
L 7.8125 54.6875 
L 15.28125 54.6875 
L 18.3125 70.21875 
L 27.296875 70.21875 
L 24.3125 54.6875 
z
" id="DejaVuSans-Oblique-116"/>
      <path d="M 48.09375 32.234375 
Q 48.25 33.015625 48.3125 33.84375 
Q 48.390625 34.671875 48.390625 35.5 
Q 48.390625 41.453125 44.890625 44.921875 
Q 41.40625 48.390625 35.40625 48.390625 
Q 28.71875 48.390625 23.578125 44.15625 
Q 18.453125 39.9375 15.828125 32.171875 
z
M 55.90625 25.203125 
L 14.109375 25.203125 
Q 13.8125 23.34375 13.71875 22.265625 
Q 13.625 21.1875 13.625 20.40625 
Q 13.625 13.625 17.796875 9.90625 
Q 21.96875 6.203125 29.59375 6.203125 
Q 35.453125 6.203125 40.671875 7.515625 
Q 45.90625 8.84375 50.390625 11.375 
L 48.6875 2.484375 
Q 43.84375 0.53125 38.6875 -0.4375 
Q 33.546875 -1.421875 28.21875 -1.421875 
Q 16.84375 -1.421875 10.71875 4.015625 
Q 4.59375 9.46875 4.59375 19.484375 
Q 4.59375 28.03125 7.640625 35.375 
Q 10.6875 42.71875 16.609375 48.484375 
Q 20.40625 52.09375 25.65625 54.046875 
Q 30.90625 56 36.8125 56 
Q 46.09375 56 51.578125 50.4375 
Q 57.078125 44.875 57.078125 35.5 
Q 57.078125 33.25 56.78125 30.6875 
Q 56.5 28.125 55.90625 25.203125 
z
" id="DejaVuSans-Oblique-101"/>
      <path d="M 59.625 54.6875 
L 50.296875 6.78125 
Q 47.609375 -7.125 40.015625 -13.953125 
Q 32.421875 -20.796875 19.578125 -20.796875 
Q 14.84375 -20.796875 10.78125 -20.09375 
Q 6.734375 -19.390625 3.21875 -17.921875 
L 4.890625 -9.1875 
Q 8.203125 -11.328125 11.90625 -12.34375 
Q 15.625 -13.375 19.828125 -13.375 
Q 28.375 -13.375 33.859375 -8.703125 
Q 39.359375 -4.046875 41.109375 4.6875 
L 41.890625 8.796875 
Q 38.140625 4.5 33.15625 2.25 
Q 28.171875 0 22.40625 0 
Q 14.109375 0 9.34375 5.484375 
Q 4.59375 10.984375 4.59375 20.609375 
Q 4.59375 28.171875 7.46875 35.421875 
Q 10.359375 42.671875 15.578125 48.296875 
Q 19.046875 52 23.65625 54 
Q 28.265625 56 33.296875 56 
Q 38.8125 56 42.90625 53.4375 
Q 47.015625 50.875 49.03125 46.1875 
L 50.59375 54.6875 
z
M 46.09375 34.625 
Q 46.09375 41.265625 42.96875 44.875 
Q 39.84375 48.484375 34.078125 48.484375 
Q 30.515625 48.484375 27.296875 47.0625 
Q 24.078125 45.65625 21.78125 43.109375 
Q 18.0625 38.921875 15.984375 33.234375 
Q 13.921875 27.546875 13.921875 21.484375 
Q 13.921875 14.75 17.0625 11.125 
Q 20.21875 7.515625 26.125 7.515625 
Q 34.671875 7.515625 40.375 15.25 
Q 46.09375 23 46.09375 34.625 
z
" id="DejaVuSans-Oblique-103"/>
      <path d="M 25.390625 -1.421875 
Q 15.765625 -1.421875 10.171875 4.515625 
Q 4.59375 10.453125 4.59375 20.703125 
Q 4.59375 26.65625 6.515625 32.828125 
Q 8.453125 39.015625 11.53125 43.21875 
Q 16.359375 49.75 22.3125 52.875 
Q 28.265625 56 35.796875 56 
Q 45.125 56 50.859375 50.1875 
Q 56.59375 44.390625 56.59375 35.015625 
Q 56.59375 28.515625 54.6875 22.0625 
Q 52.78125 15.625 49.703125 11.375 
Q 44.921875 4.828125 38.96875 1.703125 
Q 33.015625 -1.421875 25.390625 -1.421875 
z
M 13.921875 21 
Q 13.921875 13.578125 17.015625 9.890625 
Q 20.125 6.203125 26.421875 6.203125 
Q 35.453125 6.203125 41.375 14.078125 
Q 47.3125 21.96875 47.3125 34.078125 
Q 47.3125 41.15625 44.140625 44.765625 
Q 40.96875 48.390625 34.8125 48.390625 
Q 29.734375 48.390625 25.78125 46.015625 
Q 21.828125 43.65625 18.703125 38.8125 
Q 16.40625 35.203125 15.15625 30.5625 
Q 13.921875 25.921875 13.921875 21 
z
" id="DejaVuSans-Oblique-111"/>
      <path d="M 44.578125 46.390625 
Q 43.21875 47.125 41.453125 47.515625 
Q 39.703125 47.90625 37.703125 47.90625 
Q 30.515625 47.90625 25.140625 42.453125 
Q 19.78125 37.015625 18.015625 27.875 
L 12.5 0 
L 3.515625 0 
L 14.203125 54.6875 
L 23.1875 54.6875 
L 21.484375 46.1875 
Q 25.046875 50.921875 30 53.453125 
Q 34.96875 56 40.578125 56 
Q 42.046875 56 43.453125 55.828125 
Q 44.875 55.671875 46.296875 55.28125 
z
" id="DejaVuSans-Oblique-114"/>
      <path d="M 18.3125 75.984375 
L 27.296875 75.984375 
L 25.09375 64.59375 
L 16.109375 64.59375 
z
M 14.203125 54.6875 
L 23.1875 54.6875 
L 12.5 0 
L 3.515625 0 
z
" id="DejaVuSans-Oblique-105"/>
      <path d="M 53.609375 52.59375 
L 51.8125 43.703125 
Q 48.578125 46.046875 44.9375 47.21875 
Q 41.3125 48.390625 37.40625 48.390625 
Q 33.109375 48.390625 29.21875 46.875 
Q 25.34375 45.359375 22.703125 42.578125 
Q 18.5 38.328125 16.203125 32.609375 
Q 13.921875 26.90625 13.921875 20.796875 
Q 13.921875 13.421875 17.609375 9.8125 
Q 21.296875 6.203125 28.8125 6.203125 
Q 32.515625 6.203125 36.6875 7.328125 
Q 40.875 8.453125 45.40625 10.6875 
L 43.703125 1.8125 
Q 39.796875 0.203125 35.671875 -0.609375 
Q 31.546875 -1.421875 27.203125 -1.421875 
Q 16.3125 -1.421875 10.453125 4.015625 
Q 4.59375 9.46875 4.59375 19.578125 
Q 4.59375 28.078125 7.640625 35.234375 
Q 10.6875 42.390625 16.703125 48.09375 
Q 20.796875 52 26.3125 54 
Q 31.84375 56 38.375 56 
Q 42.1875 56 45.9375 55.140625 
Q 49.703125 54.296875 53.609375 52.59375 
z
" id="DejaVuSans-Oblique-99"/>
      <path d="M 18.3125 75.984375 
L 27.296875 75.984375 
L 12.5 0 
L 3.515625 0 
z
" id="DejaVuSans-Oblique-108"/>
      <path d="M 50 53.078125 
L 48.296875 44.578125 
Q 44.734375 46.53125 40.765625 47.5 
Q 36.8125 48.484375 32.625 48.484375 
Q 25.53125 48.484375 21.453125 46.0625 
Q 17.390625 43.65625 17.390625 39.5 
Q 17.390625 34.671875 26.859375 32.078125 
Q 27.59375 31.890625 27.9375 31.78125 
L 30.8125 30.90625 
Q 39.796875 28.421875 42.796875 25.6875 
Q 45.796875 22.953125 45.796875 18.21875 
Q 45.796875 9.515625 38.890625 4.046875 
Q 31.984375 -1.421875 20.796875 -1.421875 
Q 16.453125 -1.421875 11.671875 -0.578125 
Q 6.890625 0.25 1.125 2 
L 2.875 11.28125 
Q 7.8125 8.734375 12.59375 7.421875 
Q 17.390625 6.109375 21.78125 6.109375 
Q 28.375 6.109375 32.5 8.9375 
Q 36.625 11.765625 36.625 16.109375 
Q 36.625 20.796875 25.78125 23.6875 
L 24.859375 23.921875 
L 21.78125 24.703125 
Q 14.9375 26.515625 11.765625 29.46875 
Q 8.59375 32.421875 8.59375 37.015625 
Q 8.59375 45.75 15.15625 50.875 
Q 21.734375 56 33.015625 56 
Q 37.453125 56 41.671875 55.265625 
Q 45.90625 54.546875 50 53.078125 
z
" id="DejaVuSans-Oblique-115"/>
      <path d="M 55.71875 33.015625 
L 49.3125 0 
L 40.28125 0 
L 46.6875 32.671875 
Q 47.125 34.96875 47.359375 36.71875 
Q 47.609375 38.484375 47.609375 39.5 
Q 47.609375 43.609375 45.015625 45.890625 
Q 42.4375 48.1875 37.796875 48.1875 
Q 30.5625 48.1875 25.34375 43.375 
Q 20.125 38.578125 18.5 30.328125 
L 12.5 0 
L 3.515625 0 
L 14.109375 54.6875 
L 23.09375 54.6875 
L 21.296875 46.09375 
Q 25.046875 50.828125 30.3125 53.40625 
Q 35.59375 56 41.40625 56 
Q 48.640625 56 52.609375 52.09375 
Q 56.59375 48.1875 56.59375 41.109375 
Q 56.59375 39.359375 56.375 37.359375 
Q 56.15625 35.359375 55.71875 33.015625 
z
" id="DejaVuSans-Oblique-110"/>
      <path d="M 49.609375 33.6875 
Q 49.609375 40.875 46.484375 44.671875 
Q 43.359375 48.484375 37.5 48.484375 
Q 33.5 48.484375 29.859375 46.4375 
Q 26.21875 44.390625 23.390625 40.484375 
Q 20.609375 36.625 18.9375 31.15625 
Q 17.28125 25.6875 17.28125 20.3125 
Q 17.28125 13.484375 20.40625 9.796875 
Q 23.53125 6.109375 29.296875 6.109375 
Q 33.546875 6.109375 37.1875 8.109375 
Q 40.828125 10.109375 43.40625 13.921875 
Q 46.1875 17.921875 47.890625 23.34375 
Q 49.609375 28.765625 49.609375 33.6875 
z
M 21.78125 46.390625 
Q 25.390625 51.125 30.296875 53.5625 
Q 35.203125 56 41.21875 56 
Q 49.609375 56 54.25 50.5 
Q 58.890625 45.015625 58.890625 35.109375 
Q 58.890625 27 56 19.65625 
Q 53.125 12.3125 47.703125 6.5 
Q 44.09375 2.640625 39.546875 0.609375 
Q 35.015625 -1.421875 29.984375 -1.421875 
Q 24.171875 -1.421875 20.21875 1 
Q 16.265625 3.421875 14.3125 8.203125 
L 8.6875 -20.796875 
L -0.296875 -20.796875 
L 14.40625 54.6875 
L 23.390625 54.6875 
z
" id="DejaVuSans-Oblique-112"/>
      <path d="M 24.8125 -5.078125 
Q 18.5625 -15.578125 14.625 -18.1875 
Q 10.6875 -20.796875 4.59375 -20.796875 
L -2.484375 -20.796875 
L -0.984375 -13.28125 
L 4.203125 -13.28125 
Q 7.953125 -13.28125 10.59375 -11.234375 
Q 13.234375 -9.1875 16.5 -3.21875 
L 19.28125 2 
L 7.171875 54.6875 
L 16.703125 54.6875 
L 25.78125 12.796875 
L 50.875 54.6875 
L 60.296875 54.6875 
z
" id="DejaVuSans-Oblique-121"/>
     </defs>
     <g transform="translate(103.015 396.905)rotate(-90)scale(0.16 -0.16)">
      <use transform="translate(0 0.3125)" xlink:href="#DejaVuSans-1054"/>
      <use transform="translate(78.710938 0.3125)" xlink:href="#DejaVuSans-1096"/>
      <use transform="translate(170.214844 0.3125)" xlink:href="#DejaVuSans-1080"/>
      <use transform="translate(235.205078 0.3125)" xlink:href="#DejaVuSans-1073"/>
      <use transform="translate(296.875 0.3125)" xlink:href="#DejaVuSans-1082"/>
      <use transform="translate(357.275391 0.3125)" xlink:href="#DejaVuSans-1072"/>
      <use transform="translate(418.554688 0.3125)" xlink:href="#DejaVuSans-32"/>
      <use transform="translate(450.341797 0.3125)" xlink:href="#DejaVuSans-Oblique-67"/>
      <use transform="translate(520.166016 0.3125)" xlink:href="#DejaVuSans-Oblique-97"/>
      <use transform="translate(581.445312 0.3125)" xlink:href="#DejaVuSans-Oblique-116"/>
      <use transform="translate(620.654297 0.3125)" xlink:href="#DejaVuSans-Oblique-101"/>
      <use transform="translate(682.177734 0.3125)" xlink:href="#DejaVuSans-Oblique-103"/>
      <use transform="translate(745.654297 0.3125)" xlink:href="#DejaVuSans-Oblique-111"/>
      <use transform="translate(806.835938 0.3125)" xlink:href="#DejaVuSans-Oblique-114"/>
      <use transform="translate(847.949219 0.3125)" xlink:href="#DejaVuSans-Oblique-105"/>
      <use transform="translate(875.732422 0.3125)" xlink:href="#DejaVuSans-Oblique-99"/>
      <use transform="translate(930.712891 0.3125)" xlink:href="#DejaVuSans-Oblique-97"/>
      <use transform="translate(991.992188 0.3125)" xlink:href="#DejaVuSans-Oblique-108"/>
      <use transform="translate(1019.775391 0.3125)" xlink:href="#DejaVuSans-32"/>
      <use transform="translate(1051.5625 0.3125)" xlink:href="#DejaVuSans-Oblique-67"/>
      <use transform="translate(1121.386719 0.3125)" xlink:href="#DejaVuSans-Oblique-114"/>
      <use transform="translate(1162.5 0.3125)" xlink:href="#DejaVuSans-Oblique-111"/>
      <use transform="translate(1223.681641 0.3125)" xlink:href="#DejaVuSans-Oblique-115"/>
      <use transform="translate(1275.78125 0.3125)" xlink:href="#DejaVuSans-Oblique-115"/>
      <use transform="translate(1327.880859 0.3125)" xlink:href="#DejaVuSans-Oblique-101"/>
      <use transform="translate(1389.404297 0.3125)" xlink:href="#DejaVuSans-Oblique-110"/>
      <use transform="translate(1452.783203 0.3125)" xlink:href="#DejaVuSans-Oblique-116"/>
      <use transform="translate(1491.992188 0.3125)" xlink:href="#DejaVuSans-Oblique-114"/>
      <use transform="translate(1533.105469 0.3125)" xlink:href="#DejaVuSans-Oblique-111"/>
      <use transform="translate(1594.287109 0.3125)" xlink:href="#DejaVuSans-Oblique-112"/>
      <use transform="translate(1657.763672 0.3125)" xlink:href="#DejaVuSans-Oblique-121"/>
     </g>
    </g>
   </g>
   <g id="line2d_13">
    <path clip-path="url(#pc854c394c3)" d="M 196.118182 140.375246 
L 198.891055 146.173701 
L 201.663929 125.704091 
L 204.436802 133.371755 
L 207.209676 135.951781 
L 209.982549 139.724211 
L 212.755422 148.48093 
L 215.528296 155.17954 
L 218.301169 162.549348 
L 221.074043 172.399986 
L 223.846916 309.758447 
L 226.61979 312.304343 
L 229.392663 315.112177 
L 232.165536 314.861976 
L 234.93841 317.113462 
L 237.711283 317.376952 
L 243.25703 318.881534 
L 246.029904 319.392929 
L 248.802777 320.261184 
L 251.57565 324.351769 
L 254.348524 325.263677 
L 257.121397 325.227995 
L 259.894271 322.244061 
L 262.667144 325.052858 
L 265.440018 326.728692 
L 268.212891 327.328137 
L 270.985764 328.712887 
L 273.758638 328.7369 
L 279.304385 328.494687 
L 282.077258 330.865835 
L 284.850132 329.731218 
L 287.623005 331.660411 
L 290.395878 331.4132 
L 293.168752 332.322322 
L 295.941625 329.08275 
L 298.714499 332.42552 
L 301.487372 333.608771 
L 304.260246 335.875658 
L 307.033119 334.573385 
L 309.805992 334.187783 
L 312.578866 333.436708 
L 315.351739 335.848182 
L 318.124613 336.151223 
L 320.897486 337.910075 
L 323.67036 337.929748 
L 326.443233 339.574814 
L 329.216106 339.466213 
L 331.98898 340.342236 
L 334.761853 339.045823 
L 337.534727 341.662815 
L 340.3076 340.122686 
L 343.080474 341.420348 
L 345.853347 338.574822 
L 348.62622 344.313952 
L 351.399094 340.190116 
L 354.171967 341.388786 
L 356.944841 344.543534 
L 359.717714 344.017903 
L 362.490588 346.343877 
L 365.263461 344.502464 
L 368.036334 346.341885 
L 370.809208 346.56591 
L 373.582081 347.693485 
L 376.354955 346.18095 
L 379.127828 348.345652 
L 381.900702 346.152241 
L 384.673575 349.803574 
L 387.446448 348.754609 
L 390.219322 349.585509 
L 392.992195 349.862375 
L 395.765069 351.833127 
L 398.537942 349.986766 
L 401.310816 351.891321 
L 404.083689 353.19074 
L 406.856562 353.068358 
L 409.629436 352.694746 
L 412.402309 353.189777 
L 415.175183 355.006755 
L 417.948056 356.331589 
L 420.72093 355.301673 
L 423.493803 353.348618 
L 426.266676 354.682216 
L 429.03955 356.978622 
L 431.812423 356.542341 
L 434.585297 357.226813 
L 437.35817 356.836499 
L 440.131044 356.305836 
L 442.903917 355.88933 
L 445.67679 358.173526 
L 448.449664 357.033437 
L 451.222537 358.54729 
L 453.995411 359.765836 
L 456.768284 359.55706 
L 459.541158 360.38411 
L 462.314031 360.278565 
L 465.086904 359.977669 
L 467.859778 361.246961 
L 470.632651 362.236703 
L 473.405525 361.953437 
L 476.178398 360.859704 
L 478.951272 361.446213 
L 481.724145 361.794545 
L 484.497018 363.946936 
L 487.269892 364.215899 
L 490.042765 362.997319 
L 492.815639 359.75258 
L 495.588512 362.651874 
L 498.361386 363.127384 
L 501.134259 364.551481 
L 503.907132 365.149659 
L 506.680006 357.75648 
L 509.452879 358.94956 
L 512.225753 358.408156 
L 514.998626 358.278361 
L 517.7715 361.960107 
L 520.544373 361.304496 
L 523.317246 362.111467 
L 526.09012 365.089473 
L 528.862993 363.45969 
L 531.635867 364.312747 
L 534.40874 364.702419 
L 537.181614 366.223786 
L 539.954487 364.923979 
L 542.72736 365.743362 
L 545.500234 365.049805 
L 548.273107 367.634222 
L 551.045981 366.557291 
L 553.818854 368.115878 
L 556.591728 365.002775 
L 559.364601 366.528921 
L 562.137474 366.575867 
L 564.910348 365.619985 
L 573.228968 370.036813 
L 576.001842 368.844797 
L 578.774715 369.538877 
L 581.547588 370.020872 
L 587.093335 371.319041 
L 589.866209 372.728902 
L 592.639082 371.114166 
L 595.411956 371.016591 
L 598.184829 370.783565 
L 600.957702 372.483058 
L 603.730576 371.447012 
L 606.503449 372.820279 
L 609.276323 371.726377 
L 612.049196 372.811025 
L 614.82207 371.261523 
L 617.594943 371.872755 
L 620.367816 372.636377 
L 623.14069 375.709492 
L 625.913563 374.901693 
L 628.686437 374.90073 
L 631.45931 374.773384 
L 634.232184 375.753753 
L 637.005057 374.523183 
L 639.77793 373.144513 
L 642.550804 375.447369 
L 645.323677 375.444447 
L 648.096551 375.20036 
L 650.869424 375.862608 
L 653.642298 375.545382 
L 656.415171 375.456741 
L 659.188044 376.65938 
L 661.960918 378.365594 
L 664.733791 377.890135 
L 667.506665 376.20991 
L 670.279538 378.118585 
L 673.052412 380.523068 
L 675.825285 380.491641 
L 678.598158 378.909294 
L 681.371032 379.941761 
L 684.143905 377.122899 
L 689.689652 379.941001 
L 692.462526 378.089708 
L 695.235399 378.081957 
L 698.008272 379.113089 
L 703.554019 380.318514 
L 706.326893 379.477076 
L 709.099766 380.281446 
L 711.87264 378.079745 
L 714.645513 378.808579 
L 717.418386 380.164908 
L 720.19126 379.159529 
L 722.964133 381.369911 
L 725.737007 381.809636 
L 728.50988 380.819574 
L 731.282754 381.34382 
L 734.055627 382.83962 
L 736.8285 383.314893 
L 739.601374 382.843605 
L 742.374247 382.530719 
L 745.147121 382.331467 
L 747.919994 383.949041 
L 750.692868 382.642969 
L 753.465741 382.651514 
L 756.238614 383.260685 
L 759.011488 382.859918 
L 761.784361 382.814846 
L 764.557235 384.197637 
L 767.330108 383.509265 
L 770.102982 385.295187 
L 772.875855 384.783724 
L 775.648728 384.717121 
L 778.421602 383.156626 
L 781.194475 383.581913 
L 783.967349 377.357243 
L 786.740222 377.821489 
L 789.513096 378.845967 
L 792.285969 377.978979 
L 795.058842 377.751914 
L 797.831716 379.735821 
L 800.604589 381.293868 
L 803.377463 381.996037 
L 806.150336 382.453984 
L 808.92321 381.64171 
L 811.696083 382.058435 
L 814.468956 381.692811 
L 817.24183 382.414198 
L 820.014703 381.873217 
L 822.787577 382.674531 
L 825.56045 383.617427 
L 828.333324 382.350769 
L 831.106197 384.095436 
L 833.87907 382.801151 
L 836.651944 383.260179 
L 839.424817 384.339355 
L 842.197691 382.165652 
L 844.970564 384.3594 
L 847.743438 383.329095 
L 850.516311 383.46269 
L 853.289184 385.289783 
L 856.062058 382.354991 
L 858.834931 385.102825 
L 861.607805 385.650375 
L 864.380678 385.377022 
L 867.153552 386.299553 
L 869.926425 385.236994 
L 872.699298 385.855318 
L 875.472172 386.846343 
L 878.245045 385.834429 
L 881.017919 385.186062 
L 883.790792 384.929191 
L 886.563666 385.435469 
L 889.336539 386.065918 
L 892.109412 387.015553 
L 894.882286 384.575556 
L 897.655159 386.384158 
L 900.428033 387.811311 
L 903.200906 387.357637 
L 905.97378 387.02246 
L 908.746653 388.06038 
L 911.519526 387.214467 
L 914.2924 389.154096 
L 917.065273 389.332054 
L 919.838147 386.235922 
L 922.61102 386.64596 
L 925.383894 385.684977 
L 928.156767 385.331258 
L 930.92964 387.723717 
L 933.702514 388.885793 
L 936.475387 388.770757 
L 939.248261 390.087232 
L 942.021134 390.632486 
L 944.794008 389.086531 
L 947.566881 390.288967 
L 950.339754 389.547146 
L 953.112628 389.894364 
L 955.885501 390.011763 
L 958.658375 387.692915 
L 964.204122 388.200612 
L 966.976995 391.097559 
L 969.749868 388.153817 
L 972.522742 390.472547 
L 975.295615 391.830159 
L 978.068489 390.847274 
L 980.841362 391.452021 
L 983.614236 389.343909 
L 986.387109 390.387149 
L 989.159982 388.665381 
L 991.932856 390.328229 
L 994.705729 391.251587 
L 997.478603 389.647523 
L 1000.251476 391.526916 
L 1003.02435 390.0682 
L 1005.797223 391.332443 
L 1008.570096 391.700246 
L 1011.34297 391.24208 
L 1014.115843 391.022107 
L 1016.888717 389.966674 
L 1019.66159 392.462636 
L 1022.434464 392.250245 
L 1025.207337 391.340887 
L 1027.98021 392.47243 
L 1030.753084 392.500446 
L 1033.525957 393.204321 
L 1036.298831 391.021364 
L 1039.071704 393.385909 
L 1041.844578 390.800395 
L 1044.617451 392.033971 
L 1050.163198 391.346476 
L 1052.936071 392.613911 
L 1055.708945 391.888555 
L 1058.481818 389.816733 
L 1058.481818 389.816733 
" style="fill:none;stroke:#1f77b4;stroke-linecap:square;stroke-width:1.5;"/>
   </g>
   <g id="line2d_14">
    <path clip-path="url(#pc854c394c3)" d="M 196.118182 151.189197 
L 198.891055 157.088941 
L 201.663929 131.731502 
L 204.436802 138.694835 
L 207.209676 135.416828 
L 209.982549 144.238935 
L 212.755422 158.064379 
L 215.528296 163.272289 
L 218.301169 163.923391 
L 221.074043 172.58941 
L 223.846916 332.561259 
L 226.61979 330.108073 
L 229.392663 316.858347 
L 232.165536 316.251928 
L 234.93841 311.512739 
L 237.711283 315.165541 
L 240.484157 315.632894 
L 243.25703 314.500911 
L 246.029904 318.610275 
L 248.802777 319.214566 
L 251.57565 313.111923 
L 254.348524 310.372094 
L 257.121397 314.008937 
L 259.894271 312.136181 
L 262.667144 313.320902 
L 265.440018 311.558791 
L 268.212891 313.335796 
L 270.985764 313.355554 
L 273.758638 310.554475 
L 276.531511 308.631108 
L 279.304385 308.179258 
L 282.077258 306.907601 
L 284.850132 303.342495 
L 287.623005 304.658379 
L 290.395878 301.329609 
L 293.168752 305.253703 
L 295.941625 307.73835 
L 298.714499 303.224859 
L 301.487372 305.555393 
L 304.260246 298.740549 
L 307.033119 300.993875 
L 309.805992 297.855238 
L 312.578866 304.090108 
L 315.351739 290.776092 
L 318.124613 300.765138 
L 320.897486 301.520654 
L 323.67036 302.883197 
L 326.443233 289.717519 
L 329.216106 299.485882 
L 331.98898 299.714467 
L 334.761853 295.416947 
L 337.534727 292.200341 
L 340.3076 298.710456 
L 343.080474 285.867897 
L 345.853347 293.607872 
L 348.62622 297.911168 
L 351.399094 290.909079 
L 354.171967 292.083769 
L 356.944841 288.099945 
L 359.717714 287.525443 
L 362.490588 292.044861 
L 365.263461 297.893994 
L 368.036334 294.109574 
L 370.809208 292.105959 
L 373.582081 284.624206 
L 376.354955 296.118508 
L 379.127828 287.324975 
L 381.900702 297.854478 
L 384.673575 278.536913 
L 387.446448 289.475407 
L 390.219322 287.996443 
L 392.992195 284.095755 
L 395.765069 287.752964 
L 398.537942 294.282532 
L 401.310816 302.912682 
L 404.083689 294.995037 
L 409.629436 291.977836 
L 412.402309 282.552654 
L 415.175183 291.672346 
L 417.948056 290.568633 
L 420.72093 283.137795 
L 423.493803 300.571813 
L 426.266676 294.46461 
L 429.03955 287.597939 
L 431.812423 282.317381 
L 434.585297 283.455139 
L 437.35817 295.36436 
L 440.131044 273.18249 
L 442.903917 285.249775 
L 445.67679 295.877308 
L 448.449664 280.152359 
L 451.222537 272.786418 
L 453.995411 279.915414 
L 456.768284 292.899623 
L 459.541158 290.257368 
L 462.314031 289.672379 
L 465.086904 296.6731 
L 467.859778 282.645972 
L 470.632651 284.716764 
L 473.405525 294.74335 
L 476.178398 285.280628 
L 478.951272 280.080318 
L 481.724145 282.430762 
L 484.497018 276.592116 
L 487.269892 299.305628 
L 490.042765 296.239792 
L 492.815639 288.175785 
L 495.588512 282.591714 
L 498.361386 290.733233 
L 501.134259 275.440679 
L 503.907132 280.165581 
L 506.680006 353.166439 
L 509.452879 352.331131 
L 512.225753 349.42579 
L 514.998626 353.423445 
L 517.7715 352.625373 
L 520.544373 350.419467 
L 523.317246 350.206232 
L 526.09012 348.312502 
L 528.862993 349.390378 
L 531.635867 348.497315 
L 534.40874 349.566832 
L 537.181614 348.491388 
L 539.954487 346.15599 
L 542.72736 347.160002 
L 545.500234 344.611521 
L 548.273107 343.03088 
L 551.045981 348.222679 
L 553.818854 346.41786 
L 556.591728 345.001058 
L 559.364601 342.152256 
L 562.137474 346.365273 
L 564.910348 341.51544 
L 567.683221 344.705752 
L 570.456095 342.816734 
L 573.228968 342.838467 
L 576.001842 340.765851 
L 578.774715 339.724756 
L 581.547588 343.749312 
L 584.320462 342.997747 
L 587.093335 343.985192 
L 589.866209 342.074896 
L 592.639082 343.90464 
L 595.411956 341.047935 
L 598.184829 343.25141 
L 600.957702 344.017565 
L 603.730576 342.674172 
L 606.503449 340.285884 
L 609.276323 341.737946 
L 612.049196 336.844341 
L 614.82207 339.54131 
L 617.594943 340.190133 
L 620.367816 340.977718 
L 623.14069 340.953249 
L 625.913563 341.231077 
L 628.686437 341.041552 
L 631.45931 339.821266 
L 634.232184 340.373427 
L 637.005057 337.837865 
L 639.77793 337.218831 
L 642.550804 341.129703 
L 645.323677 338.863306 
L 648.096551 340.304274 
L 650.869424 340.123868 
L 653.642298 336.45906 
L 656.415171 334.322914 
L 659.188044 336.435958 
L 661.960918 336.082441 
L 664.733791 334.381124 
L 667.506665 334.847413 
L 673.052412 334.55773 
L 675.825285 331.449946 
L 678.598158 333.52089 
L 681.371032 333.966206 
L 684.143905 331.551168 
L 686.916779 333.750995 
L 689.689652 333.298993 
L 692.462526 333.675611 
L 695.235399 325.673766 
L 698.008272 333.363434 
L 700.781146 334.083386 
L 703.554019 334.245554 
L 709.099766 333.44581 
L 711.87264 331.555272 
L 714.645513 330.592448 
L 717.418386 332.508216 
L 720.19126 331.026517 
L 722.964133 326.83189 
L 725.737007 331.043083 
L 728.50988 328.789301 
L 731.282754 331.342949 
L 734.055627 327.731487 
L 736.8285 329.667165 
L 739.601374 328.187442 
L 742.374247 328.152181 
L 745.147121 329.394809 
L 747.919994 324.959286 
L 750.692868 327.896087 
L 753.465741 329.301794 
L 756.238614 329.132179 
L 759.011488 330.063997 
L 761.784361 326.357241 
L 764.557235 328.42089 
L 767.330108 328.604944 
L 770.102982 331.333222 
L 772.875855 325.501719 
L 775.648728 323.026192 
L 778.421602 324.933904 
L 781.194475 319.232348 
L 783.967349 387.641899 
L 786.740222 385.41745 
L 789.513096 384.947817 
L 792.285969 382.902255 
L 795.058842 386.819965 
L 797.831716 383.885748 
L 800.604589 383.543934 
L 803.377463 383.069438 
L 806.150336 383.624638 
L 808.92321 385.223518 
L 811.696083 380.75319 
L 814.468956 383.788478 
L 817.24183 383.42493 
L 820.014703 383.876477 
L 822.787577 381.650204 
L 825.56045 380.308635 
L 828.333324 380.35499 
L 831.106197 379.961046 
L 833.87907 382.446148 
L 839.424817 382.304043 
L 842.197691 380.372164 
L 844.970564 378.888489 
L 847.743438 381.223127 
L 850.516311 382.432166 
L 853.289184 382.199781 
L 856.062058 379.797662 
L 858.834931 380.305291 
L 861.607805 378.869947 
L 864.380678 377.183069 
L 867.153552 377.68705 
L 869.926425 376.205959 
L 872.699298 381.134216 
L 875.472172 380.232187 
L 878.245045 377.099021 
L 881.017919 380.196774 
L 883.790792 375.247847 
L 886.563666 377.782192 
L 889.336539 377.396455 
L 892.109412 373.726327 
L 894.882286 375.53145 
L 897.655159 374.286999 
L 900.428033 379.622424 
L 903.200906 375.95108 
L 905.97378 376.768302 
L 908.746653 376.226932 
L 911.519526 380.807297 
L 914.2924 375.465641 
L 917.065273 377.361803 
L 919.838147 376.403691 
L 922.61102 371.074346 
L 925.383894 369.072706 
L 928.156767 377.951503 
L 930.92964 376.001843 
L 933.702514 375.217906 
L 936.475387 377.732797 
L 939.248261 376.542453 
L 942.021134 371.609636 
L 944.794008 375.413054 
L 947.566881 369.81044 
L 950.339754 375.388737 
L 953.112628 373.593493 
L 955.885501 370.429474 
L 958.658375 376.731674 
L 961.431248 373.558536 
L 964.204122 376.419953 
L 966.976995 371.580151 
L 969.749868 373.063826 
L 972.522742 371.344119 
L 975.295615 369.352206 
L 978.068489 373.621458 
L 980.841362 375.032332 
L 983.614236 370.334028 
L 986.387109 367.461212 
L 989.159982 371.727576 
L 991.932856 371.298979 
L 994.705729 375.427341 
L 997.478603 368.690161 
L 1000.251476 368.851873 
L 1003.02435 371.260527 
L 1005.797223 373.151065 
L 1008.570096 372.270466 
L 1011.34297 371.508566 
L 1014.115843 370.984523 
L 1016.888717 374.792348 
L 1019.66159 373.946249 
L 1022.434464 371.141219 
L 1025.207337 374.426369 
L 1027.98021 364.686731 
L 1030.753084 366.149432 
L 1033.525957 366.882454 
L 1036.298831 368.943367 
L 1039.071704 373.592277 
L 1041.844578 373.783322 
L 1044.617451 366.914219 
L 1047.390324 373.291803 
L 1050.163198 371.848252 
L 1052.936071 369.948595 
L 1055.708945 369.430327 
L 1058.481818 371.385154 
L 1058.481818 371.385154 
" style="fill:none;stroke:#ff7f0e;stroke-linecap:square;stroke-width:1.5;"/>
   </g>
   <g id="patch_3">
    <path d="M 153 406.77 
L 153 112.32 
" style="fill:none;stroke:#000000;stroke-linecap:square;stroke-linejoin:miter;stroke-width:0.8;"/>
   </g>
   <g id="patch_4">
    <path d="M 1101.6 406.77 
L 1101.6 112.32 
" style="fill:none;stroke:#000000;stroke-linecap:square;stroke-linejoin:miter;stroke-width:0.8;"/>
   </g>
   <g id="patch_5">
    <path d="M 153 406.77 
L 1101.6 406.77 
" style="fill:none;stroke:#000000;stroke-linecap:square;stroke-linejoin:miter;stroke-width:0.8;"/>
   </g>
   <g id="patch_6">
    <path d="M 153 112.32 
L 1101.6 112.32 
" style="fill:none;stroke:#000000;stroke-linecap:square;stroke-linejoin:miter;stroke-width:0.8;"/>
   </g>
   <g id="text_15">
    <!-- Ошибка обучения модели для анализа текста -->
    <defs>
     <path d="M 9.078125 54.6875 
L 22.21875 54.6875 
L 37.75 18.0625 
L 53.328125 54.6875 
L 66.359375 54.6875 
L 66.359375 0 
L 57.328125 0 
L 57.328125 46.09375 
L 42.234375 10.5 
L 33.25 10.5 
L 18.109375 46.09375 
L 18.109375 0 
L 9.078125 0 
z
" id="DejaVuSans-1084"/>
     <path d="M 21.625 7.171875 
L 47.703125 7.171875 
L 47.703125 47.515625 
L 28.8125 47.515625 
L 28.8125 40.671875 
Q 28.8125 20.5625 23.046875 9.8125 
z
M 8.59375 7.171875 
Q 13.03125 9.125 14.984375 13.28125 
Q 19.78125 23.578125 19.78125 44.34375 
L 19.78125 54.6875 
L 56.734375 54.6875 
L 56.734375 7.171875 
L 63.921875 7.171875 
L 63.921875 -13.8125 
L 56.734375 -13.8125 
L 56.734375 0 
L 12.40625 0 
L 12.40625 -13.8125 
L 5.21875 -13.8125 
L 5.21875 7.171875 
z
" id="DejaVuSans-1076"/>
     <path d="M 3.71875 0 
L 3.71875 7.46875 
Q 12.59375 8.84375 15.328125 14.984375 
Q 18.65625 23.640625 18.65625 45.75 
L 18.65625 54.6875 
L 55.609375 54.6875 
L 55.609375 0 
L 46.625 0 
L 46.625 47.515625 
L 27.640625 47.515625 
L 27.640625 42.09375 
Q 27.640625 21 23.34375 11.53125 
Q 18.75 1.421875 3.71875 0 
z
" id="DejaVuSans-1083"/>
     <path d="M 34.46875 29.5 
Q 40.53125 28.328125 43.890625 24.75 
Q 47.265625 21.1875 47.265625 15.921875 
Q 47.265625 7.46875 40.96875 3.015625 
Q 34.671875 -1.421875 23.046875 -1.421875 
Q 19.140625 -1.421875 15.015625 -0.734375 
Q 10.890625 -0.046875 6.5 1.3125 
L 6.5 9.671875 
Q 9.96875 7.859375 14.109375 6.953125 
Q 18.265625 6.0625 22.796875 6.0625 
Q 30.171875 6.0625 34.296875 8.796875 
Q 38.421875 11.53125 38.421875 15.921875 
Q 38.421875 20.21875 34.765625 22.828125 
Q 31.109375 25.4375 24.421875 25.4375 
L 17.1875 25.4375 
L 17.1875 32.859375 
L 24.75 32.859375 
Q 30.421875 32.859375 33.71875 35.03125 
Q 37.015625 37.203125 37.015625 40.625 
Q 37.015625 43.75 33.609375 46 
Q 30.21875 48.25 24.421875 48.25 
Q 20.953125 48.25 17.015625 47.609375 
Q 13.09375 46.96875 8.34375 45.5625 
L 8.34375 53.71875 
Q 13.140625 54.890625 17.28125 55.46875 
Q 21.4375 56.0625 25.140625 56.0625 
Q 34.71875 56.0625 40.25 52.21875 
Q 45.796875 48.390625 45.796875 41.5 
Q 45.796875 36.96875 42.859375 33.8125 
Q 39.9375 30.671875 34.46875 29.5 
z
" id="DejaVuSans-1079"/>
     <path d="M 2.9375 54.6875 
L 55.328125 54.6875 
L 55.328125 47.515625 
L 33.546875 47.515625 
L 33.546875 0 
L 24.703125 0 
L 24.703125 47.515625 
L 2.9375 47.515625 
z
" id="DejaVuSans-1090"/>
     <path d="M 48.78125 52.59375 
L 48.78125 44.1875 
Q 44.96875 46.296875 41.140625 47.34375 
Q 37.3125 48.390625 33.40625 48.390625 
Q 24.65625 48.390625 19.8125 42.84375 
Q 14.984375 37.3125 14.984375 27.296875 
Q 14.984375 17.28125 19.8125 11.734375 
Q 24.65625 6.203125 33.40625 6.203125 
Q 37.3125 6.203125 41.140625 7.25 
Q 44.96875 8.296875 48.78125 10.40625 
L 48.78125 2.09375 
Q 45.015625 0.34375 40.984375 -0.53125 
Q 36.96875 -1.421875 32.421875 -1.421875 
Q 20.0625 -1.421875 12.78125 6.34375 
Q 5.515625 14.109375 5.515625 27.296875 
Q 5.515625 40.671875 12.859375 48.328125 
Q 20.21875 56 33.015625 56 
Q 37.15625 56 41.109375 55.140625 
Q 45.0625 54.296875 48.78125 52.59375 
z
" id="DejaVuSans-1089"/>
    </defs>
    <g transform="translate(392.478 106.32)scale(0.192 -0.192)">
     <use xlink:href="#DejaVuSans-1054"/>
     <use x="78.710938" xlink:href="#DejaVuSans-1096"/>
     <use x="170.214844" xlink:href="#DejaVuSans-1080"/>
     <use x="235.205078" xlink:href="#DejaVuSans-1073"/>
     <use x="296.875" xlink:href="#DejaVuSans-1082"/>
     <use x="357.275391" xlink:href="#DejaVuSans-1072"/>
     <use x="418.554688" xlink:href="#DejaVuSans-32"/>
     <use x="450.341797" xlink:href="#DejaVuSans-1086"/>
     <use x="511.523438" xlink:href="#DejaVuSans-1073"/>
     <use x="573.193359" xlink:href="#DejaVuSans-1091"/>
     <use x="632.373047" xlink:href="#DejaVuSans-1095"/>
     <use x="691.455078" xlink:href="#DejaVuSans-1077"/>
     <use x="752.978516" xlink:href="#DejaVuSans-1085"/>
     <use x="818.359375" xlink:href="#DejaVuSans-1080"/>
     <use x="883.349609" xlink:href="#DejaVuSans-1103"/>
     <use x="943.505859" xlink:href="#DejaVuSans-32"/>
     <use x="975.292969" xlink:href="#DejaVuSans-1084"/>
     <use x="1050.732422" xlink:href="#DejaVuSans-1086"/>
     <use x="1111.914062" xlink:href="#DejaVuSans-1076"/>
     <use x="1181.054688" xlink:href="#DejaVuSans-1077"/>
     <use x="1242.578125" xlink:href="#DejaVuSans-1083"/>
     <use x="1306.494141" xlink:href="#DejaVuSans-1080"/>
     <use x="1371.484375" xlink:href="#DejaVuSans-32"/>
     <use x="1403.271484" xlink:href="#DejaVuSans-1076"/>
     <use x="1472.412109" xlink:href="#DejaVuSans-1083"/>
     <use x="1536.328125" xlink:href="#DejaVuSans-1103"/>
     <use x="1596.484375" xlink:href="#DejaVuSans-32"/>
     <use x="1628.271484" xlink:href="#DejaVuSans-1072"/>
     <use x="1689.550781" xlink:href="#DejaVuSans-1085"/>
     <use x="1754.931641" xlink:href="#DejaVuSans-1072"/>
     <use x="1816.210938" xlink:href="#DejaVuSans-1083"/>
     <use x="1880.126953" xlink:href="#DejaVuSans-1080"/>
     <use x="1945.117188" xlink:href="#DejaVuSans-1079"/>
     <use x="1998.291016" xlink:href="#DejaVuSans-1072"/>
     <use x="2059.570312" xlink:href="#DejaVuSans-32"/>
     <use x="2091.357422" xlink:href="#DejaVuSans-1090"/>
     <use x="2149.609375" xlink:href="#DejaVuSans-1077"/>
     <use x="2211.132812" xlink:href="#DejaVuSans-1082"/>
     <use x="2271.533203" xlink:href="#DejaVuSans-1089"/>
     <use x="2326.513672" xlink:href="#DejaVuSans-1090"/>
     <use x="2384.765625" xlink:href="#DejaVuSans-1072"/>
    </g>
   </g>
   <g id="legend_1">
    <g id="patch_7">
     <path d="M 874.7325 172.3625 
L 1090.4 172.3625 
Q 1093.6 172.3625 1093.6 169.1625 
L 1093.6 123.52 
Q 1093.6 120.32 1090.4 120.32 
L 874.7325 120.32 
Q 871.5325 120.32 871.5325 123.52 
L 871.5325 169.1625 
Q 871.5325 172.3625 874.7325 172.3625 
z
" style="fill:#ffffff;opacity:0.8;stroke:#cccccc;stroke-linejoin:miter;"/>
    </g>
    <g id="line2d_15">
     <path d="M 877.9325 133.55 
L 909.9325 133.55 
" style="fill:none;stroke:#1f77b4;stroke-linecap:square;stroke-width:1.5;"/>
    </g>
    <g id="line2d_16"/>
    <g id="text_16">
     <!-- Ошибка обучения -->
     <g transform="translate(922.7325 139.15)scale(0.16 -0.16)">
      <use xlink:href="#DejaVuSans-1054"/>
      <use x="78.710938" xlink:href="#DejaVuSans-1096"/>
      <use x="170.214844" xlink:href="#DejaVuSans-1080"/>
      <use x="235.205078" xlink:href="#DejaVuSans-1073"/>
      <use x="296.875" xlink:href="#DejaVuSans-1082"/>
      <use x="357.275391" xlink:href="#DejaVuSans-1072"/>
      <use x="418.554688" xlink:href="#DejaVuSans-32"/>
      <use x="450.341797" xlink:href="#DejaVuSans-1086"/>
      <use x="511.523438" xlink:href="#DejaVuSans-1073"/>
      <use x="573.193359" xlink:href="#DejaVuSans-1091"/>
      <use x="632.373047" xlink:href="#DejaVuSans-1095"/>
      <use x="691.455078" xlink:href="#DejaVuSans-1077"/>
      <use x="752.978516" xlink:href="#DejaVuSans-1085"/>
      <use x="818.359375" xlink:href="#DejaVuSans-1080"/>
      <use x="883.349609" xlink:href="#DejaVuSans-1103"/>
     </g>
    </g>
    <g id="line2d_17">
     <path d="M 877.9325 157.035 
L 909.9325 157.035 
" style="fill:none;stroke:#ff7f0e;stroke-linecap:square;stroke-width:1.5;"/>
    </g>
    <g id="line2d_18"/>
    <g id="text_17">
     <!-- Ошибка валидации -->
     <defs>
      <path d="M 18.0625 25.203125 
L 18.0625 7.171875 
L 30.859375 7.171875 
Q 37.015625 7.171875 40.234375 9.484375 
Q 43.453125 11.8125 43.453125 16.21875 
Q 43.453125 20.609375 40.234375 22.90625 
Q 37.015625 25.203125 30.859375 25.203125 
z
M 18.0625 47.515625 
L 18.0625 32.375 
L 29.890625 32.375 
Q 34.96875 32.375 38.1875 34.390625 
Q 41.40625 36.421875 41.40625 40.046875 
Q 41.40625 43.65625 38.1875 45.578125 
Q 34.96875 47.515625 29.890625 47.515625 
z
M 9.078125 54.6875 
L 30.46875 54.6875 
Q 40.09375 54.6875 45.265625 51.171875 
Q 50.4375 47.65625 50.4375 41.15625 
Q 50.4375 36.140625 47.796875 33.171875 
Q 45.171875 30.21875 39.984375 29.5 
Q 46.1875 28.328125 49.609375 24.609375 
Q 53.03125 20.90625 53.03125 15.328125 
Q 53.03125 8.015625 47.390625 4 
Q 41.75 0 31.296875 0 
L 9.078125 0 
z
" id="DejaVuSans-1074"/>
      <path d="M 56.296875 0 
L 9.078125 0 
L 9.078125 54.6875 
L 18.109375 54.6875 
L 18.109375 7.171875 
L 47.265625 7.171875 
L 47.265625 54.6875 
L 56.296875 54.6875 
L 56.296875 7.171875 
L 63.484375 7.171875 
L 63.484375 -13.8125 
L 56.296875 -13.8125 
z
" id="DejaVuSans-1094"/>
     </defs>
     <g transform="translate(922.7325 162.635)scale(0.16 -0.16)">
      <use xlink:href="#DejaVuSans-1054"/>
      <use x="78.710938" xlink:href="#DejaVuSans-1096"/>
      <use x="170.214844" xlink:href="#DejaVuSans-1080"/>
      <use x="235.205078" xlink:href="#DejaVuSans-1073"/>
      <use x="296.875" xlink:href="#DejaVuSans-1082"/>
      <use x="357.275391" xlink:href="#DejaVuSans-1072"/>
      <use x="418.554688" xlink:href="#DejaVuSans-32"/>
      <use x="450.341797" xlink:href="#DejaVuSans-1074"/>
      <use x="509.277344" xlink:href="#DejaVuSans-1072"/>
      <use x="570.556641" xlink:href="#DejaVuSans-1083"/>
      <use x="634.472656" xlink:href="#DejaVuSans-1080"/>
      <use x="699.462891" xlink:href="#DejaVuSans-1076"/>
      <use x="768.603516" xlink:href="#DejaVuSans-1072"/>
      <use x="829.882812" xlink:href="#DejaVuSans-1094"/>
      <use x="897.949219" xlink:href="#DejaVuSans-1080"/>
      <use x="962.939453" xlink:href="#DejaVuSans-1080"/>
     </g>
    </g>
   </g>
  </g>
  <g id="axes_2">
   <g id="patch_8">
    <path d="M 153 819 
L 1101.6 819 
L 1101.6 524.55 
L 153 524.55 
z
" style="fill:#ffffff;"/>
   </g>
   <g id="matplotlib.axis_3">
    <g id="xtick_8">
     <g id="line2d_19">
      <g>
       <use style="stroke:#000000;stroke-width:0.8;" x="196.118182" xlink:href="#m33e3a254bf" y="819"/>
      </g>
     </g>
     <g id="text_18">
      <!-- 0 -->
      <g transform="translate(191.028182 838.1575)scale(0.16 -0.16)">
       <use xlink:href="#DejaVuSans-48"/>
      </g>
     </g>
    </g>
    <g id="xtick_9">
     <g id="line2d_20">
      <g>
       <use style="stroke:#000000;stroke-width:0.8;" x="334.761853" xlink:href="#m33e3a254bf" y="819"/>
      </g>
     </g>
     <g id="text_19">
      <!-- 50 -->
      <g transform="translate(324.581853 838.1575)scale(0.16 -0.16)">
       <use xlink:href="#DejaVuSans-53"/>
       <use x="63.623047" xlink:href="#DejaVuSans-48"/>
      </g>
     </g>
    </g>
    <g id="xtick_10">
     <g id="line2d_21">
      <g>
       <use style="stroke:#000000;stroke-width:0.8;" x="473.405525" xlink:href="#m33e3a254bf" y="819"/>
      </g>
     </g>
     <g id="text_20">
      <!-- 100 -->
      <g transform="translate(458.135525 838.1575)scale(0.16 -0.16)">
       <use xlink:href="#DejaVuSans-49"/>
       <use x="63.623047" xlink:href="#DejaVuSans-48"/>
       <use x="127.246094" xlink:href="#DejaVuSans-48"/>
      </g>
     </g>
    </g>
    <g id="xtick_11">
     <g id="line2d_22">
      <g>
       <use style="stroke:#000000;stroke-width:0.8;" x="612.049196" xlink:href="#m33e3a254bf" y="819"/>
      </g>
     </g>
     <g id="text_21">
      <!-- 150 -->
      <g transform="translate(596.779196 838.1575)scale(0.16 -0.16)">
       <use xlink:href="#DejaVuSans-49"/>
       <use x="63.623047" xlink:href="#DejaVuSans-53"/>
       <use x="127.246094" xlink:href="#DejaVuSans-48"/>
      </g>
     </g>
    </g>
    <g id="xtick_12">
     <g id="line2d_23">
      <g>
       <use style="stroke:#000000;stroke-width:0.8;" x="750.692868" xlink:href="#m33e3a254bf" y="819"/>
      </g>
     </g>
     <g id="text_22">
      <!-- 200 -->
      <g transform="translate(735.422868 838.1575)scale(0.16 -0.16)">
       <use xlink:href="#DejaVuSans-50"/>
       <use x="63.623047" xlink:href="#DejaVuSans-48"/>
       <use x="127.246094" xlink:href="#DejaVuSans-48"/>
      </g>
     </g>
    </g>
    <g id="xtick_13">
     <g id="line2d_24">
      <g>
       <use style="stroke:#000000;stroke-width:0.8;" x="889.336539" xlink:href="#m33e3a254bf" y="819"/>
      </g>
     </g>
     <g id="text_23">
      <!-- 250 -->
      <g transform="translate(874.066539 838.1575)scale(0.16 -0.16)">
       <use xlink:href="#DejaVuSans-50"/>
       <use x="63.623047" xlink:href="#DejaVuSans-53"/>
       <use x="127.246094" xlink:href="#DejaVuSans-48"/>
      </g>
     </g>
    </g>
    <g id="xtick_14">
     <g id="line2d_25">
      <g>
       <use style="stroke:#000000;stroke-width:0.8;" x="1027.98021" xlink:href="#m33e3a254bf" y="819"/>
      </g>
     </g>
     <g id="text_24">
      <!-- 300 -->
      <g transform="translate(1012.71021 838.1575)scale(0.16 -0.16)">
       <use xlink:href="#DejaVuSans-51"/>
       <use x="63.623047" xlink:href="#DejaVuSans-48"/>
       <use x="127.246094" xlink:href="#DejaVuSans-48"/>
      </g>
     </g>
    </g>
    <g id="text_25">
     <!-- Эпохи обучения -->
     <g transform="translate(559.65875 857.915)scale(0.16 -0.16)">
      <use xlink:href="#DejaVuSans-1069"/>
      <use x="69.824219" xlink:href="#DejaVuSans-1087"/>
      <use x="135.205078" xlink:href="#DejaVuSans-1086"/>
      <use x="196.386719" xlink:href="#DejaVuSans-1093"/>
      <use x="255.566406" xlink:href="#DejaVuSans-1080"/>
      <use x="320.556641" xlink:href="#DejaVuSans-32"/>
      <use x="352.34375" xlink:href="#DejaVuSans-1086"/>
      <use x="413.525391" xlink:href="#DejaVuSans-1073"/>
      <use x="475.195312" xlink:href="#DejaVuSans-1091"/>
      <use x="534.375" xlink:href="#DejaVuSans-1095"/>
      <use x="593.457031" xlink:href="#DejaVuSans-1077"/>
      <use x="654.980469" xlink:href="#DejaVuSans-1085"/>
      <use x="720.361328" xlink:href="#DejaVuSans-1080"/>
      <use x="785.351562" xlink:href="#DejaVuSans-1103"/>
     </g>
    </g>
   </g>
   <g id="matplotlib.axis_4">
    <g id="ytick_6">
     <g id="line2d_26">
      <g>
       <use style="stroke:#000000;stroke-width:0.8;" x="153" xlink:href="#m979df6e9a7" y="802.483907"/>
      </g>
     </g>
     <g id="text_26">
      <!-- 0.50 -->
      <g transform="translate(110.375 808.562657)scale(0.16 -0.16)">
       <use xlink:href="#DejaVuSans-48"/>
       <use x="63.623047" xlink:href="#DejaVuSans-46"/>
       <use x="95.410156" xlink:href="#DejaVuSans-53"/>
       <use x="159.033203" xlink:href="#DejaVuSans-48"/>
      </g>
     </g>
    </g>
    <g id="ytick_7">
     <g id="line2d_27">
      <g>
       <use style="stroke:#000000;stroke-width:0.8;" x="153" xlink:href="#m979df6e9a7" y="747.749462"/>
      </g>
     </g>
     <g id="text_27">
      <!-- 0.52 -->
      <g transform="translate(110.375 753.828212)scale(0.16 -0.16)">
       <use xlink:href="#DejaVuSans-48"/>
       <use x="63.623047" xlink:href="#DejaVuSans-46"/>
       <use x="95.410156" xlink:href="#DejaVuSans-53"/>
       <use x="159.033203" xlink:href="#DejaVuSans-50"/>
      </g>
     </g>
    </g>
    <g id="ytick_8">
     <g id="line2d_28">
      <g>
       <use style="stroke:#000000;stroke-width:0.8;" x="153" xlink:href="#m979df6e9a7" y="693.015018"/>
      </g>
     </g>
     <g id="text_28">
      <!-- 0.54 -->
      <g transform="translate(110.375 699.093768)scale(0.16 -0.16)">
       <use xlink:href="#DejaVuSans-48"/>
       <use x="63.623047" xlink:href="#DejaVuSans-46"/>
       <use x="95.410156" xlink:href="#DejaVuSans-53"/>
       <use x="159.033203" xlink:href="#DejaVuSans-52"/>
      </g>
     </g>
    </g>
    <g id="ytick_9">
     <g id="line2d_29">
      <g>
       <use style="stroke:#000000;stroke-width:0.8;" x="153" xlink:href="#m979df6e9a7" y="638.280574"/>
      </g>
     </g>
     <g id="text_29">
      <!-- 0.56 -->
      <g transform="translate(110.375 644.359324)scale(0.16 -0.16)">
       <use xlink:href="#DejaVuSans-48"/>
       <use x="63.623047" xlink:href="#DejaVuSans-46"/>
       <use x="95.410156" xlink:href="#DejaVuSans-53"/>
       <use x="159.033203" xlink:href="#DejaVuSans-54"/>
      </g>
     </g>
    </g>
    <g id="ytick_10">
     <g id="line2d_30">
      <g>
       <use style="stroke:#000000;stroke-width:0.8;" x="153" xlink:href="#m979df6e9a7" y="583.546129"/>
      </g>
     </g>
     <g id="text_30">
      <!-- 0.58 -->
      <defs>
       <path d="M 31.78125 34.625 
Q 24.75 34.625 20.71875 30.859375 
Q 16.703125 27.09375 16.703125 20.515625 
Q 16.703125 13.921875 20.71875 10.15625 
Q 24.75 6.390625 31.78125 6.390625 
Q 38.8125 6.390625 42.859375 10.171875 
Q 46.921875 13.96875 46.921875 20.515625 
Q 46.921875 27.09375 42.890625 30.859375 
Q 38.875 34.625 31.78125 34.625 
z
M 21.921875 38.8125 
Q 15.578125 40.375 12.03125 44.71875 
Q 8.5 49.078125 8.5 55.328125 
Q 8.5 64.0625 14.71875 69.140625 
Q 20.953125 74.21875 31.78125 74.21875 
Q 42.671875 74.21875 48.875 69.140625 
Q 55.078125 64.0625 55.078125 55.328125 
Q 55.078125 49.078125 51.53125 44.71875 
Q 48 40.375 41.703125 38.8125 
Q 48.828125 37.15625 52.796875 32.3125 
Q 56.78125 27.484375 56.78125 20.515625 
Q 56.78125 9.90625 50.3125 4.234375 
Q 43.84375 -1.421875 31.78125 -1.421875 
Q 19.734375 -1.421875 13.25 4.234375 
Q 6.78125 9.90625 6.78125 20.515625 
Q 6.78125 27.484375 10.78125 32.3125 
Q 14.796875 37.15625 21.921875 38.8125 
z
M 18.3125 54.390625 
Q 18.3125 48.734375 21.84375 45.5625 
Q 25.390625 42.390625 31.78125 42.390625 
Q 38.140625 42.390625 41.71875 45.5625 
Q 45.3125 48.734375 45.3125 54.390625 
Q 45.3125 60.0625 41.71875 63.234375 
Q 38.140625 66.40625 31.78125 66.40625 
Q 25.390625 66.40625 21.84375 63.234375 
Q 18.3125 60.0625 18.3125 54.390625 
z
" id="DejaVuSans-56"/>
      </defs>
      <g transform="translate(110.375 589.624879)scale(0.16 -0.16)">
       <use xlink:href="#DejaVuSans-48"/>
       <use x="63.623047" xlink:href="#DejaVuSans-46"/>
       <use x="95.410156" xlink:href="#DejaVuSans-53"/>
       <use x="159.033203" xlink:href="#DejaVuSans-56"/>
      </g>
     </g>
    </g>
    <g id="ytick_11">
     <g id="line2d_31">
      <g>
       <use style="stroke:#000000;stroke-width:0.8;" x="153" xlink:href="#m979df6e9a7" y="528.811685"/>
      </g>
     </g>
     <g id="text_31">
      <!-- 0.60 -->
      <g transform="translate(110.375 534.890435)scale(0.16 -0.16)">
       <use xlink:href="#DejaVuSans-48"/>
       <use x="63.623047" xlink:href="#DejaVuSans-46"/>
       <use x="95.410156" xlink:href="#DejaVuSans-54"/>
       <use x="159.033203" xlink:href="#DejaVuSans-48"/>
      </g>
     </g>
    </g>
    <g id="text_32">
     <!-- Ошибка $Accuracy$ -->
     <defs>
      <path d="M 36.8125 72.90625 
L 48 72.90625 
L 61.53125 0 
L 51.21875 0 
L 48.1875 18.703125 
L 15.375 18.703125 
L 5.078125 0 
L -5.328125 0 
z
M 40.375 63.1875 
L 19.921875 26.90625 
L 46.6875 26.90625 
z
" id="DejaVuSans-Oblique-65"/>
      <path d="M 6.6875 21.6875 
L 13.09375 54.6875 
L 22.125 54.6875 
L 15.71875 22.015625 
Q 15.234375 19.625 15.015625 17.921875 
Q 14.796875 16.21875 14.796875 15.09375 
Q 14.796875 10.9375 17.328125 8.65625 
Q 19.875 6.390625 24.515625 6.390625 
Q 31.734375 6.390625 37 11.265625 
Q 42.28125 16.15625 43.890625 24.421875 
L 49.90625 54.6875 
L 58.890625 54.6875 
L 48.296875 0 
L 39.3125 0 
L 41.109375 8.59375 
Q 37.3125 3.8125 32.0625 1.1875 
Q 26.8125 -1.421875 20.90625 -1.421875 
Q 13.71875 -1.421875 9.71875 2.515625 
Q 5.71875 6.453125 5.71875 13.484375 
Q 5.71875 14.9375 5.953125 17.140625 
Q 6.203125 19.34375 6.6875 21.6875 
z
" id="DejaVuSans-Oblique-117"/>
     </defs>
     <g transform="translate(103.015 744.495)rotate(-90)scale(0.16 -0.16)">
      <use transform="translate(0 0.3125)" xlink:href="#DejaVuSans-1054"/>
      <use transform="translate(78.710938 0.3125)" xlink:href="#DejaVuSans-1096"/>
      <use transform="translate(170.214844 0.3125)" xlink:href="#DejaVuSans-1080"/>
      <use transform="translate(235.205078 0.3125)" xlink:href="#DejaVuSans-1073"/>
      <use transform="translate(296.875 0.3125)" xlink:href="#DejaVuSans-1082"/>
      <use transform="translate(357.275391 0.3125)" xlink:href="#DejaVuSans-1072"/>
      <use transform="translate(418.554688 0.3125)" xlink:href="#DejaVuSans-32"/>
      <use transform="translate(450.341797 0.3125)" xlink:href="#DejaVuSans-Oblique-65"/>
      <use transform="translate(518.75 0.3125)" xlink:href="#DejaVuSans-Oblique-99"/>
      <use transform="translate(573.730469 0.3125)" xlink:href="#DejaVuSans-Oblique-99"/>
      <use transform="translate(628.710938 0.3125)" xlink:href="#DejaVuSans-Oblique-117"/>
      <use transform="translate(692.089844 0.3125)" xlink:href="#DejaVuSans-Oblique-114"/>
      <use transform="translate(733.203125 0.3125)" xlink:href="#DejaVuSans-Oblique-97"/>
      <use transform="translate(794.482422 0.3125)" xlink:href="#DejaVuSans-Oblique-99"/>
      <use transform="translate(849.462891 0.3125)" xlink:href="#DejaVuSans-Oblique-121"/>
     </g>
    </g>
   </g>
   <g id="line2d_32">
    <path clip-path="url(#pb54b6f9570)" d="M 196.118182 804.490843 
L 198.891055 735.616666 
L 201.663929 802.27106 
L 204.436802 802.27106 
L 207.209676 805.615909 
L 209.982549 744.343758 
L 212.755422 607.081922 
L 215.528296 602.581549 
L 218.301169 605.744001 
L 221.074043 611.278246 
L 223.846916 573.633118 
L 226.61979 572.568833 
L 229.392663 565.088459 
L 232.165536 570.288233 
L 234.93841 569.832109 
L 237.711283 564.176221 
L 240.484157 564.814796 
L 243.25703 564.419462 
L 246.029904 565.088477 
L 248.802777 561.378662 
L 251.57565 562.807868 
L 254.348524 561.044191 
L 257.121397 564.449875 
L 259.894271 560.557673 
L 262.667144 564.75396 
L 265.440018 560.466433 
L 270.985764 559.736656 
L 273.758638 557.790545 
L 276.531511 558.915639 
L 282.077258 558.641966 
L 284.850132 559.037282 
L 287.623005 556.847876 
L 290.395878 556.330963 
L 293.168752 557.516882 
L 295.941625 557.15198 
L 298.714499 557.243165 
L 301.487372 556.513387 
L 304.260246 555.357889 
L 307.033119 555.509919 
L 309.805992 557.699306 
L 312.578866 555.722792 
L 315.351739 554.476074 
L 318.124613 554.476046 
L 320.897486 556.695838 
L 323.67036 554.536854 
L 326.443233 553.168493 
L 329.216106 555.266677 
L 334.761853 552.104235 
L 337.534727 551.435265 
L 340.3076 553.168493 
L 343.080474 552.438733 
L 345.853347 555.905234 
L 348.62622 551.800167 
L 351.399094 554.293613 
L 354.171967 555.753196 
L 356.944841 552.925233 
L 359.717714 554.445633 
L 362.490588 549.975664 
L 365.263461 553.533386 
L 368.036334 551.222419 
L 370.809208 552.438733 
L 373.582081 550.644661 
L 376.354955 555.661948 
L 379.127828 552.925252 
L 381.900702 551.739341 
L 384.673575 550.006086 
L 387.446448 550.766268 
L 390.219322 549.610771 
L 392.992195 550.310153 
L 395.765069 553.472614 
L 398.537942 550.401365 
L 401.310816 550.735864 
L 404.083689 549.245886 
L 406.856562 548.18161 
L 409.629436 547.755872 
L 412.402309 551.708937 
L 415.175183 552.317099 
L 417.948056 550.066885 
L 420.72093 548.394447 
L 423.493803 551.131189 
L 426.266676 549.397934 
L 429.03955 550.553431 
L 431.812423 547.938324 
L 434.585297 548.576898 
L 437.35817 547.968737 
L 440.131044 550.97915 
L 442.903917 550.766286 
L 445.67679 547.90792 
L 448.449664 549.093839 
L 451.222537 552.134657 
L 453.995411 547.147702 
L 456.768284 547.755881 
L 459.541158 549.397924 
L 462.314031 549.458732 
L 465.086904 546.357116 
L 467.859778 547.026086 
L 470.632651 548.485659 
L 473.405525 545.475264 
L 476.178398 550.644643 
L 478.951272 551.98261 
L 481.724145 548.516099 
L 487.269892 546.478759 
L 490.042765 547.178133 
L 492.815639 549.124261 
L 495.588512 547.786304 
L 498.361386 547.786285 
L 503.907132 546.569971 
L 506.680006 551.283209 
L 509.452879 550.46221 
L 512.225753 547.603843 
L 514.998626 551.191969 
L 517.7715 548.789763 
L 520.544373 548.546494 
L 523.317246 550.431788 
L 526.09012 546.47875 
L 528.862993 550.310144 
L 531.635867 545.04958 
L 534.40874 549.458742 
L 537.181614 546.357107 
L 539.954487 546.083444 
L 542.72736 549.549972 
L 545.500234 545.992222 
L 548.273107 546.448319 
L 551.045981 545.262445 
L 553.818854 547.421392 
L 556.591728 546.47875 
L 559.364601 546.600384 
L 562.137474 545.901001 
L 564.910348 545.901001 
L 567.683221 552.104235 
L 570.456095 545.414456 
L 573.228968 545.29284 
L 578.774715 544.715064 
L 581.547588 546.722009 
L 584.320462 543.924469 
L 587.093335 545.110388 
L 589.866209 543.742018 
L 592.639082 545.779358 
L 595.411956 546.417933 
L 598.184829 544.502227 
L 600.957702 544.715064 
L 603.730576 545.718541 
L 606.503449 547.755909 
L 609.276323 545.505704 
L 612.049196 544.350179 
L 614.82207 545.414456 
L 617.594943 547.05649 
L 620.367816 545.414456 
L 623.14069 548.546476 
L 625.913563 543.498749 
L 628.686437 543.802853 
L 631.45931 545.353648 
L 634.232184 545.900992 
L 639.77793 543.650788 
L 642.550804 544.927928 
L 645.323677 543.650797 
L 648.096551 547.816699 
L 650.869424 544.775899 
L 653.642298 545.201628 
L 656.415171 544.988781 
L 659.188044 546.965287 
L 664.733791 543.802844 
L 667.506665 543.954891 
L 670.279538 544.654247 
L 673.052412 546.357116 
L 678.598158 542.677714 
L 681.371032 543.468336 
L 684.143905 546.113857 
L 686.916779 542.434473 
L 689.689652 543.194673 
L 692.462526 545.079984 
L 695.235399 545.992213 
L 698.008272 545.444887 
L 700.781146 544.28938 
L 703.554019 542.404087 
L 706.326893 544.7151 
L 709.099766 545.718559 
L 711.87264 543.590007 
L 714.645513 544.228527 
L 717.418386 543.498758 
L 720.19126 548.2424 
L 722.964133 545.657724 
L 725.737007 542.67776 
L 728.50988 542.495308 
L 731.282754 542.890606 
L 734.055627 544.684678 
L 736.8285 542.525694 
L 739.601374 543.407537 
L 742.374247 542.677741 
L 745.147121 546.144261 
L 747.919994 542.282435 
L 750.692868 541.096525 
L 753.465741 542.130388 
L 756.238614 542.373656 
L 759.011488 543.985286 
L 761.784361 543.377142 
L 764.557235 542.191214 
L 767.330108 545.140783 
L 770.102982 541.187746 
L 772.875855 543.468364 
L 775.648728 544.654265 
L 778.421602 542.981845 
L 781.194475 542.312866 
L 783.967349 547.360584 
L 786.740222 547.755891 
L 789.513096 543.742036 
L 792.285969 541.126929 
L 795.058842 546.569962 
L 797.831716 542.069589 
L 800.604589 544.623843 
L 803.377463 542.82978 
L 806.150336 541.856734 
L 808.92321 543.316316 
L 811.696083 544.441401 
L 814.468956 540.701218 
L 817.24183 543.133865 
L 820.014703 540.762035 
L 822.787577 544.95835 
L 825.56045 540.001835 
L 828.333324 540.731622 
L 831.106197 539.758576 
L 833.87907 541.552657 
L 836.651944 539.636942 
L 839.424817 541.613456 
L 842.197691 543.012222 
L 844.970564 540.609988 
L 847.743438 541.248563 
L 850.516311 540.914073 
L 853.289184 539.454482 
L 856.062058 541.826321 
L 858.834931 539.88021 
L 861.607805 541.887156 
L 864.380678 541.005294 
L 867.153552 539.667346 
L 869.926425 542.67776 
L 872.699298 541.643869 
L 875.472172 542.039185 
L 878.245045 539.880201 
L 881.017919 540.883651 
L 883.790792 540.883688 
L 886.563666 541.248572 
L 889.336539 542.799385 
L 892.109412 540.153855 
L 894.882286 541.157342 
L 897.655159 540.883669 
L 900.428033 543.620393 
L 903.200906 539.819366 
L 905.97378 539.72819 
L 908.746653 541.613456 
L 911.519526 540.245122 
L 914.2924 539.97144 
L 917.065273 541.491831 
L 919.838147 541.887147 
L 922.61102 539.241635 
L 925.383894 544.44141 
L 928.156767 545.292821 
L 930.92964 544.441401 
L 933.702514 539.910623 
L 936.475387 540.427573 
L 939.248261 538.724686 
L 942.021134 539.393674 
L 944.794008 539.54573 
L 947.566881 539.484904 
L 950.339754 541.187737 
L 953.112628 539.332866 
L 955.885501 542.160819 
L 958.658375 544.167719 
L 961.431248 539.910587 
L 966.976995 539.272049 
L 969.749868 542.008754 
L 972.522742 539.667364 
L 975.295615 538.663905 
L 978.068489 540.062643 
L 980.841362 538.481436 
L 983.614236 539.728163 
L 986.387109 542.434464 
L 989.159982 539.241608 
L 994.705729 539.028789 
L 997.478603 543.285876 
L 1000.251476 538.937568 
L 1003.02435 539.454491 
L 1005.797223 539.272058 
L 1008.570096 539.728154 
L 1011.34297 538.724713 
L 1016.888717 541.613465 
L 1019.66159 538.633456 
L 1027.98021 539.02878 
L 1033.525957 538.511858 
L 1039.071704 539.089606 
L 1044.617451 538.785503 
L 1047.390324 540.336325 
L 1050.163198 539.028771 
L 1052.936071 537.934091 
L 1055.708945 540.792457 
L 1058.481818 539.636933 
L 1058.481818 539.636933 
" style="fill:none;stroke:#1f77b4;stroke-linecap:square;stroke-width:1.5;"/>
   </g>
   <g id="line2d_33">
    <path clip-path="url(#pb54b6f9570)" d="M 196.118182 784.421479 
L 198.891055 609.544946 
L 201.663929 804.399604 
L 204.436802 804.399604 
L 207.209676 774.295721 
L 209.982549 640.469982 
L 212.755422 607.629249 
L 215.528296 605.439834 
L 218.301169 605.166198 
L 221.074043 608.724038 
L 223.846916 550.431806 
L 226.61979 539.758531 
L 229.392663 564.389121 
L 232.165536 567.399444 
L 234.93841 566.031101 
L 237.711283 564.115404 
L 240.484157 568.220516 
L 243.25703 567.946798 
L 246.029904 566.852091 
L 248.802777 567.125808 
L 251.57565 569.862495 
L 254.348524 565.483747 
L 257.121397 564.115404 
L 259.894271 565.483747 
L 262.667144 566.031101 
L 265.440018 565.483747 
L 268.212891 566.578455 
L 270.985764 566.578455 
L 273.758638 567.673162 
L 276.531511 567.673162 
L 279.304385 566.852172 
L 282.077258 567.946798 
L 284.850132 567.673081 
L 287.623005 566.578455 
L 290.395878 566.031183 
L 293.168752 603.524218 
L 295.941625 566.852091 
L 298.714499 567.399444 
L 301.487372 568.220434 
L 304.260246 568.220516 
L 307.033119 569.315223 
L 309.805992 568.494152 
L 312.578866 568.220434 
L 315.351739 568.494152 
L 318.124613 603.524137 
L 320.897486 568.494152 
L 323.67036 569.862577 
L 326.443233 569.862495 
L 329.216106 570.683485 
L 331.98898 569.041506 
L 334.761853 569.315142 
L 337.534727 569.041506 
L 340.3076 569.041506 
L 345.853347 569.588859 
L 348.62622 570.136213 
L 354.171967 570.683567 
L 356.944841 570.409931 
L 359.717714 571.778193 
L 362.490588 569.588859 
L 365.263461 569.588859 
L 368.036334 571.23092 
L 370.809208 569.315142 
L 373.582081 568.494152 
L 376.354955 569.315223 
L 379.127828 568.494152 
L 381.900702 568.220434 
L 384.673575 569.588859 
L 387.446448 569.588859 
L 390.219322 569.862577 
L 392.992195 601.60844 
L 395.765069 567.399444 
L 398.537942 570.409931 
L 401.310816 567.399444 
L 404.083689 566.852091 
L 406.856562 568.76787 
L 409.629436 567.125808 
L 412.402309 602.155875 
L 415.175183 569.588859 
L 420.72093 566.304819 
L 423.493803 571.778274 
L 426.266676 567.946798 
L 429.03955 604.345208 
L 431.812423 569.588859 
L 434.585297 569.315142 
L 437.35817 568.220434 
L 440.131044 603.250501 
L 442.903917 569.588859 
L 445.67679 568.494152 
L 448.449664 568.220516 
L 451.222537 602.703147 
L 453.995411 567.946798 
L 456.768284 568.767788 
L 459.541158 568.494152 
L 462.314031 569.041506 
L 465.086904 571.23092 
L 467.859778 570.136213 
L 470.632651 566.578455 
L 473.405525 569.041506 
L 476.178398 568.494152 
L 478.951272 602.976783 
L 481.724145 568.220434 
L 484.497018 567.946798 
L 487.269892 568.494233 
L 490.042765 567.399444 
L 492.815639 568.767788 
L 495.588512 567.399444 
L 498.361386 569.315142 
L 501.134259 569.315142 
L 503.907132 567.399526 
L 506.680006 544.410997 
L 509.452879 545.232068 
L 512.225753 546.60033 
L 514.998626 544.410997 
L 517.7715 545.77934 
L 520.544373 546.60033 
L 523.317246 568.220516 
L 526.09012 545.77934 
L 528.862993 547.695119 
L 531.635867 546.326694 
L 534.40874 545.77934 
L 537.181614 546.326694 
L 539.954487 546.326694 
L 542.72736 547.695037 
L 545.500234 547.968673 
L 548.273107 547.147683 
L 551.045981 546.052976 
L 553.818854 547.421401 
L 556.591728 547.147765 
L 559.364601 547.147765 
L 562.137474 547.968755 
L 564.910348 569.862495 
L 567.683221 546.874047 
L 573.228968 547.968755 
L 576.001842 547.147683 
L 578.774715 548.516109 
L 584.320462 546.874047 
L 587.093335 547.147683 
L 589.866209 546.326694 
L 592.639082 547.695037 
L 595.411956 547.968755 
L 598.184829 549.610734 
L 600.957702 547.695037 
L 603.730576 548.242391 
L 606.503449 548.242472 
L 609.276323 546.874047 
L 614.82207 548.516027 
L 617.594943 547.968673 
L 620.367816 548.516109 
L 623.14069 550.158088 
L 625.913563 548.789745 
L 631.45931 547.695037 
L 634.232184 547.968755 
L 637.005057 550.158088 
L 639.77793 551.252796 
L 642.550804 548.516109 
L 645.323677 549.063462 
L 648.096551 549.337098 
L 650.869424 549.337098 
L 653.642298 549.063381 
L 656.415171 574.241243 
L 659.188044 549.610734 
L 661.960918 549.337098 
L 664.733791 548.516109 
L 667.506665 550.158088 
L 675.825285 550.15817 
L 678.598158 572.599264 
L 681.371032 550.15817 
L 684.143905 551.252796 
L 686.916779 550.705523 
L 689.689652 550.979159 
L 692.462526 549.610734 
L 695.235399 552.347503 
L 698.008272 549.337098 
L 700.781146 548.789745 
L 703.554019 551.526513 
L 706.326893 550.705442 
L 709.099766 549.610816 
L 711.87264 550.158088 
L 714.645513 549.884452 
L 717.418386 550.158088 
L 720.19126 549.884452 
L 722.964133 550.705442 
L 725.737007 550.705442 
L 728.50988 552.073867 
L 731.282754 550.158088 
L 734.055627 551.526432 
L 736.8285 549.610816 
L 739.601374 549.610816 
L 742.374247 550.431806 
L 745.147121 551.526513 
L 747.919994 550.431806 
L 750.692868 550.705442 
L 753.465741 550.705442 
L 756.238614 573.69389 
L 759.011488 549.884452 
L 761.784361 550.979078 
L 764.557235 550.431806 
L 767.330108 551.252796 
L 770.102982 551.800149 
L 772.875855 552.894857 
L 775.648728 550.979078 
L 778.421602 552.621139 
L 781.194475 575.883305 
L 783.967349 555.08419 
L 786.740222 556.178897 
L 789.513096 555.90518 
L 792.285969 580.262053 
L 795.058842 556.178897 
L 797.831716 556.452615 
L 800.604589 556.999969 
L 803.377463 556.999969 
L 806.150336 556.178897 
L 808.92321 556.452533 
L 811.696083 555.90518 
L 814.468956 556.726251 
L 817.24183 556.999969 
L 820.014703 556.726251 
L 822.787577 557.547241 
L 825.56045 556.999887 
L 828.333324 557.820877 
L 831.106197 582.99874 
L 833.87907 557.273605 
L 839.424817 558.368312 
L 842.197691 558.094595 
L 844.970564 558.094595 
L 847.743438 557.820958 
L 850.516311 558.641948 
L 853.289184 558.094595 
L 856.062058 557.273605 
L 858.834931 558.368231 
L 861.607805 556.999969 
L 864.380678 557.820958 
L 867.153552 559.462938 
L 869.926425 583.272457 
L 872.699298 557.820877 
L 875.472172 557.547322 
L 878.245045 558.915666 
L 881.017919 557.820958 
L 883.790792 559.736656 
L 886.563666 557.820958 
L 889.336539 559.189302 
L 892.109412 557.273605 
L 897.655159 559.462938 
L 900.428033 558.094595 
L 903.200906 559.189302 
L 905.97378 556.726251 
L 908.746653 560.010292 
L 911.519526 556.726251 
L 914.2924 583.819811 
L 917.065273 558.368312 
L 919.838147 557.820958 
L 922.61102 560.831363 
L 925.383894 560.284009 
L 928.156767 556.726251 
L 933.702514 559.46302 
L 936.475387 557.820877 
L 942.021134 558.915584 
L 944.794008 558.094595 
L 947.566881 559.189302 
L 950.339754 558.641948 
L 953.112628 560.010373 
L 955.885501 558.094595 
L 958.658375 557.820958 
L 961.431248 560.284009 
L 964.204122 558.641948 
L 966.976995 558.641948 
L 972.522742 558.094595 
L 975.295615 559.46302 
L 978.068489 558.641948 
L 980.841362 557.547241 
L 983.614236 559.189302 
L 986.387109 557.820958 
L 989.159982 559.189302 
L 991.932856 560.010373 
L 994.705729 558.368231 
L 997.478603 560.010373 
L 1000.251476 560.284009 
L 1003.02435 558.915666 
L 1008.570096 558.915666 
L 1011.34297 559.736656 
L 1014.115843 560.284009 
L 1016.888717 559.462938 
L 1019.66159 559.189302 
L 1022.434464 559.189302 
L 1025.207337 558.915666 
L 1027.98021 559.736656 
L 1030.753084 560.831363 
L 1033.525957 560.831282 
L 1036.298831 559.736656 
L 1039.071704 561.652353 
L 1041.844578 559.189302 
L 1044.617451 584.367165 
L 1047.390324 559.736656 
L 1050.163198 559.736656 
L 1052.936071 560.831363 
L 1055.708945 560.831282 
L 1058.481818 558.368312 
L 1058.481818 558.368312 
" style="fill:none;stroke:#ff7f0e;stroke-linecap:square;stroke-width:1.5;"/>
   </g>
   <g id="patch_9">
    <path d="M 153 819 
L 153 524.55 
" style="fill:none;stroke:#000000;stroke-linecap:square;stroke-linejoin:miter;stroke-width:0.8;"/>
   </g>
   <g id="patch_10">
    <path d="M 1101.6 819 
L 1101.6 524.55 
" style="fill:none;stroke:#000000;stroke-linecap:square;stroke-linejoin:miter;stroke-width:0.8;"/>
   </g>
   <g id="patch_11">
    <path d="M 153 819 
L 1101.6 819 
" style="fill:none;stroke:#000000;stroke-linecap:square;stroke-linejoin:miter;stroke-width:0.8;"/>
   </g>
   <g id="patch_12">
    <path d="M 153 524.55 
L 1101.6 524.55 
" style="fill:none;stroke:#000000;stroke-linecap:square;stroke-linejoin:miter;stroke-width:0.8;"/>
   </g>
   <g id="text_33">
    <!-- Точность обучения модели для анализа текста -->
    <defs>
     <path d="M -0.296875 72.90625 
L 61.375 72.90625 
L 61.375 64.59375 
L 35.5 64.59375 
L 35.5 0 
L 25.59375 0 
L 25.59375 64.59375 
L -0.296875 64.59375 
z
" id="DejaVuSans-1058"/>
     <path d="M 43.453125 16.21875 
Q 43.453125 20.609375 40.25 22.90625 
Q 37.0625 25.203125 30.90625 25.203125 
L 18.109375 25.203125 
L 18.109375 7.171875 
L 30.90625 7.171875 
Q 37.0625 7.171875 40.25 9.484375 
Q 43.453125 11.8125 43.453125 16.21875 
z
M 9.078125 54.6875 
L 18.109375 54.6875 
L 18.109375 32.375 
L 31.296875 32.375 
Q 41.75 32.375 47.390625 28.390625 
Q 53.03125 24.421875 53.03125 16.21875 
Q 53.03125 8.015625 47.390625 4 
Q 41.75 0 31.296875 0 
L 9.078125 0 
z
" id="DejaVuSans-1100"/>
    </defs>
    <g transform="translate(386.5725 518.55)scale(0.192 -0.192)">
     <use xlink:href="#DejaVuSans-1058"/>
     <use x="61.083984" xlink:href="#DejaVuSans-1086"/>
     <use x="122.265625" xlink:href="#DejaVuSans-1095"/>
     <use x="181.347656" xlink:href="#DejaVuSans-1085"/>
     <use x="246.728516" xlink:href="#DejaVuSans-1086"/>
     <use x="307.910156" xlink:href="#DejaVuSans-1089"/>
     <use x="362.890625" xlink:href="#DejaVuSans-1090"/>
     <use x="421.142578" xlink:href="#DejaVuSans-1100"/>
     <use x="480.078125" xlink:href="#DejaVuSans-32"/>
     <use x="511.865234" xlink:href="#DejaVuSans-1086"/>
     <use x="573.046875" xlink:href="#DejaVuSans-1073"/>
     <use x="634.716797" xlink:href="#DejaVuSans-1091"/>
     <use x="693.896484" xlink:href="#DejaVuSans-1095"/>
     <use x="752.978516" xlink:href="#DejaVuSans-1077"/>
     <use x="814.501953" xlink:href="#DejaVuSans-1085"/>
     <use x="879.882812" xlink:href="#DejaVuSans-1080"/>
     <use x="944.873047" xlink:href="#DejaVuSans-1103"/>
     <use x="1005.029297" xlink:href="#DejaVuSans-32"/>
     <use x="1036.816406" xlink:href="#DejaVuSans-1084"/>
     <use x="1112.255859" xlink:href="#DejaVuSans-1086"/>
     <use x="1173.4375" xlink:href="#DejaVuSans-1076"/>
     <use x="1242.578125" xlink:href="#DejaVuSans-1077"/>
     <use x="1304.101562" xlink:href="#DejaVuSans-1083"/>
     <use x="1368.017578" xlink:href="#DejaVuSans-1080"/>
     <use x="1433.007812" xlink:href="#DejaVuSans-32"/>
     <use x="1464.794922" xlink:href="#DejaVuSans-1076"/>
     <use x="1533.935547" xlink:href="#DejaVuSans-1083"/>
     <use x="1597.851562" xlink:href="#DejaVuSans-1103"/>
     <use x="1658.007812" xlink:href="#DejaVuSans-32"/>
     <use x="1689.794922" xlink:href="#DejaVuSans-1072"/>
     <use x="1751.074219" xlink:href="#DejaVuSans-1085"/>
     <use x="1816.455078" xlink:href="#DejaVuSans-1072"/>
     <use x="1877.734375" xlink:href="#DejaVuSans-1083"/>
     <use x="1941.650391" xlink:href="#DejaVuSans-1080"/>
     <use x="2006.640625" xlink:href="#DejaVuSans-1079"/>
     <use x="2059.814453" xlink:href="#DejaVuSans-1072"/>
     <use x="2121.09375" xlink:href="#DejaVuSans-32"/>
     <use x="2152.880859" xlink:href="#DejaVuSans-1090"/>
     <use x="2211.132812" xlink:href="#DejaVuSans-1077"/>
     <use x="2272.65625" xlink:href="#DejaVuSans-1082"/>
     <use x="2333.056641" xlink:href="#DejaVuSans-1089"/>
     <use x="2388.037109" xlink:href="#DejaVuSans-1090"/>
     <use x="2446.289062" xlink:href="#DejaVuSans-1072"/>
    </g>
   </g>
   <g id="legend_2">
    <g id="patch_13">
     <path d="M 839.54 811 
L 1090.4 811 
Q 1093.6 811 1093.6 807.8 
L 1093.6 762.1575 
Q 1093.6 758.9575 1090.4 758.9575 
L 839.54 758.9575 
Q 836.34 758.9575 836.34 762.1575 
L 836.34 807.8 
Q 836.34 811 839.54 811 
z
" style="fill:#ffffff;opacity:0.8;stroke:#cccccc;stroke-linejoin:miter;"/>
    </g>
    <g id="line2d_34">
     <path d="M 842.74 772.1875 
L 874.74 772.1875 
" style="fill:none;stroke:#1f77b4;stroke-linecap:square;stroke-width:1.5;"/>
    </g>
    <g id="line2d_35"/>
    <g id="text_34">
     <!-- Точность на обучения -->
     <g transform="translate(887.54 777.7875)scale(0.16 -0.16)">
      <use xlink:href="#DejaVuSans-1058"/>
      <use x="61.083984" xlink:href="#DejaVuSans-1086"/>
      <use x="122.265625" xlink:href="#DejaVuSans-1095"/>
      <use x="181.347656" xlink:href="#DejaVuSans-1085"/>
      <use x="246.728516" xlink:href="#DejaVuSans-1086"/>
      <use x="307.910156" xlink:href="#DejaVuSans-1089"/>
      <use x="362.890625" xlink:href="#DejaVuSans-1090"/>
      <use x="421.142578" xlink:href="#DejaVuSans-1100"/>
      <use x="480.078125" xlink:href="#DejaVuSans-32"/>
      <use x="511.865234" xlink:href="#DejaVuSans-1085"/>
      <use x="577.246094" xlink:href="#DejaVuSans-1072"/>
      <use x="638.525391" xlink:href="#DejaVuSans-32"/>
      <use x="670.3125" xlink:href="#DejaVuSans-1086"/>
      <use x="731.494141" xlink:href="#DejaVuSans-1073"/>
      <use x="793.164062" xlink:href="#DejaVuSans-1091"/>
      <use x="852.34375" xlink:href="#DejaVuSans-1095"/>
      <use x="911.425781" xlink:href="#DejaVuSans-1077"/>
      <use x="972.949219" xlink:href="#DejaVuSans-1085"/>
      <use x="1038.330078" xlink:href="#DejaVuSans-1080"/>
      <use x="1103.320312" xlink:href="#DejaVuSans-1103"/>
     </g>
    </g>
    <g id="line2d_36">
     <path d="M 842.74 795.6725 
L 874.74 795.6725 
" style="fill:none;stroke:#ff7f0e;stroke-linecap:square;stroke-width:1.5;"/>
    </g>
    <g id="line2d_37"/>
    <g id="text_35">
     <!-- Точность на валидации -->
     <g transform="translate(887.54 801.2725)scale(0.16 -0.16)">
      <use xlink:href="#DejaVuSans-1058"/>
      <use x="61.083984" xlink:href="#DejaVuSans-1086"/>
      <use x="122.265625" xlink:href="#DejaVuSans-1095"/>
      <use x="181.347656" xlink:href="#DejaVuSans-1085"/>
      <use x="246.728516" xlink:href="#DejaVuSans-1086"/>
      <use x="307.910156" xlink:href="#DejaVuSans-1089"/>
      <use x="362.890625" xlink:href="#DejaVuSans-1090"/>
      <use x="421.142578" xlink:href="#DejaVuSans-1100"/>
      <use x="480.078125" xlink:href="#DejaVuSans-32"/>
      <use x="511.865234" xlink:href="#DejaVuSans-1085"/>
      <use x="577.246094" xlink:href="#DejaVuSans-1072"/>
      <use x="638.525391" xlink:href="#DejaVuSans-32"/>
      <use x="670.3125" xlink:href="#DejaVuSans-1074"/>
      <use x="729.248047" xlink:href="#DejaVuSans-1072"/>
      <use x="790.527344" xlink:href="#DejaVuSans-1083"/>
      <use x="854.443359" xlink:href="#DejaVuSans-1080"/>
      <use x="919.433594" xlink:href="#DejaVuSans-1076"/>
      <use x="988.574219" xlink:href="#DejaVuSans-1072"/>
      <use x="1049.853516" xlink:href="#DejaVuSans-1094"/>
      <use x="1117.919922" xlink:href="#DejaVuSans-1080"/>
      <use x="1182.910156" xlink:href="#DejaVuSans-1080"/>
     </g>
    </g>
   </g>
  </g>
 </g>
 <defs>
  <clipPath id="pc854c394c3">
   <rect height="294.45" width="948.6" x="153" y="112.32"/>
  </clipPath>
  <clipPath id="pb54b6f9570">
   <rect height="294.45" width="948.6" x="153" y="524.55"/>
  </clipPath>
 </defs>
</svg>
