<svg width="32" height="32" viewBox="0 0 32 32" fill="none" xmlns="http://www.w3.org/2000/svg">
<path d="M0 10C0 4.47715 4.47715 0 10 0H22C27.5228 0 32 4.47715 32 10V22C32 27.5228 27.5228 32 22 32H10C4.47715 32 0 27.5228 0 22V10Z" fill="url(#paint0_linear)"/>
<path d="M12.7958 12.5326C12.9013 12.46 13.0025 12.4088 13.304 12.3007L21.9972 9.18428C22.3299 9.065 22.6963 9.23803 22.8156 9.57076C22.8657 9.71039 22.8657 9.86308 22.8156 10.0027L19.6992 18.6959C19.5911 18.9974 19.5399 19.0986 19.4673 19.2041C19.3947 19.3096 19.3095 19.3948 19.2039 19.4674C19.0984 19.5401 18.9972 19.5913 18.6957 19.6993L10.0026 22.8158C9.66983 22.935 9.3034 22.762 9.18412 22.4293C9.13406 22.2896 9.13406 22.137 9.18412 21.9973L12.3005 13.3042C12.4086 13.0027 12.4598 12.9015 12.5324 12.7959C12.6051 12.6904 12.6903 12.6052 12.7958 12.5326ZM14.5856 14.5858C13.8046 15.3669 13.8046 16.6332 14.5856 17.4142C15.3667 18.1953 16.633 18.1953 17.4141 17.4142C18.1951 16.6332 18.1951 15.3669 17.4141 14.5858C16.633 13.8048 15.3667 13.8048 14.5856 14.5858Z" fill="white"/>
<defs>
<linearGradient id="paint0_linear" x1="-16" y1="16" x2="16" y2="48" gradientUnits="userSpaceOnUse">
<stop stop-color="#C48AFF"/>
<stop offset="1" stop-color="#AA65F0"/>
</linearGradient>
</defs>
</svg>
