<svg width="32" height="32" viewBox="0 0 32 32" fill="none" xmlns="http://www.w3.org/2000/svg">
<path d="M0 10C0 4.47715 4.47715 0 10 0H22C27.5228 0 32 4.47715 32 10V22C32 27.5228 27.5228 32 22 32H10C4.47715 32 0 27.5228 0 22V10Z" fill="url(#paint0_linear)"/>
<path d="M12.5716 12.522C14.1173 11.5796 15.1773 9.91777 15.3021 8C17.546 9.1223 19.0859 11.4352 19.0859 14.1063C19.0859 14.8927 18.9524 15.6481 18.7068 16.3512C19.8714 16.0011 20.7745 15.0507 21.0534 13.8613C22.1681 14.9732 22.8574 16.5083 22.8574 18.2037C22.8574 20.8797 21.14 23.1563 18.7431 24C16.3461 23.1563 14.6288 20.8797 14.6288 18.2037C14.6288 18.1358 14.6299 18.0681 14.6321 18.0008C13.7766 18.9643 13.2574 20.2308 13.2574 21.6181C13.2574 22.2807 13.3758 22.9158 13.5928 23.5034C11.0392 22.8866 9.14307 20.5949 9.14307 17.8622C9.14307 15.6852 10.3464 13.7882 12.1269 12.7947L12.5716 12.522Z" fill="white"/>
<defs>
<linearGradient id="paint0_linear" x1="-16" y1="16" x2="16" y2="48" gradientUnits="userSpaceOnUse">
<stop stop-color="#FF5263"/>
<stop offset="1" stop-color="#FF3347"/>
</linearGradient>
</defs>
</svg>
