<svg width="32" height="32" viewBox="0 0 32 32" fill="none" xmlns="http://www.w3.org/2000/svg">
<path d="M0 10C0 4.47715 4.47715 0 10 0H22C27.5228 0 32 4.47715 32 10V22C32 27.5228 27.5228 32 22 32H10C4.47715 32 0 27.5228 0 22V10Z" fill="url(#paint0_linear)"/>
<path d="M16.0001 23.202C16.8838 23.202 17.6001 23.9179 17.6001 24.8009C17.6001 25.684 16.8838 26.3999 16.0001 26.3999C15.1164 26.3999 14.4001 25.684 14.4001 24.8009C14.4001 23.9179 15.1164 23.202 16.0001 23.202Z" fill="white"/>
<path d="M9.6001 12.7957C9.6001 9.26341 12.4655 6.3999 16.0001 6.3999C19.5347 6.3999 22.4001 9.26341 22.4001 12.7957C22.4001 16.328 19.5347 19.1915 16.0001 19.1915C12.4655 19.1915 9.6001 16.328 9.6001 12.7957Z" fill="white"/>
<path d="M13.6001 16.7931H18.4001V19.991C18.4001 20.8741 17.6838 21.59 16.8001 21.59H15.2001C14.3164 21.59 13.6001 20.8741 13.6001 19.991V16.7931Z" fill="white"/>
<defs>
<linearGradient id="paint0_linear" x1="-16" y1="16" x2="16" y2="48" gradientUnits="userSpaceOnUse">
<stop stop-color="#FF5263"/>
<stop offset="1" stop-color="#FF3347"/>
</linearGradient>
</defs>
</svg>
