<svg width="26" height="21" viewBox="0 0 26 21" fill="none" xmlns="http://www.w3.org/2000/svg">
<path d="M22.7066 6.66186C24.1707 8.11441 25.0003 9.99771 25.0003 12C25.0003 13.2695 24.6672 14.4958 24.0402 15.5987C24.1413 16.2021 24.4327 17.118 24.916 18.315L25.1745 18.9388L25.2314 19.1068L25.2565 19.205C25.3873 19.8531 25.0457 20.5097 24.4305 20.7705C24.2348 20.8535 24.0228 20.8908 23.8105 20.8797C21.9025 20.7794 20.3804 20.3142 19.2706 19.4561C18.2382 19.8137 17.1333 20 16.0003 20C14.8458 20 13.7198 19.8066 12.6683 19.4344C12.1477 19.2502 11.875 18.6787 12.0593 18.1581C12.2436 17.6374 12.815 17.3648 13.3357 17.5491C14.1728 17.8454 15.0732 18 16.0003 18C17.0868 18 18.1356 17.7876 19.087 17.3854C19.4636 17.2262 19.8992 17.3123 20.1869 17.6028C20.7365 18.1577 21.5585 18.5442 22.6686 18.7437L22.9521 18.7897C22.3783 17.3343 22.0637 16.2351 22.0092 15.4466C21.9945 15.2341 22.048 15.0225 22.162 14.8426C22.7107 13.9762 23.0003 13.0067 23.0003 12C23.0003 10.5462 22.3934 9.16844 21.298 8.08166C20.9059 7.69269 20.9034 7.05953 21.2924 6.66746C21.6814 6.27539 22.3145 6.27288 22.7066 6.66186ZM10.0002 0C14.9432 0 19.0002 3.54982 19.0002 8C19.0002 12.4502 14.9432 16 10.0002 16C8.8672 16 7.76235 15.8137 6.72994 15.4561C5.62015 16.3142 4.09799 16.7794 2.18999 16.8797C1.97772 16.8908 1.76569 16.8535 1.56998 16.7705C0.954818 16.5097 0.613189 15.8531 0.74404 15.205L0.769099 15.1068L0.826028 14.9388L0.959653 14.6201C1.47496 13.3764 1.79825 12.4113 1.9311 11.756L1.96035 11.5987L1.80974 11.3204C1.28015 10.2911 1.00018 9.16373 1.00018 8C1.00018 3.54982 5.05711 0 10.0002 0ZM10.0002 2C6.10669 2 3.00018 4.7182 3.00018 8C3.00018 9.0067 3.28984 9.97616 3.83855 10.8426C3.9525 11.0225 4.00603 11.2341 3.99134 11.4466C3.94074 12.1788 3.66581 13.1788 3.16741 14.4833L3.04843 14.7897L3.33197 14.7437C4.44206 14.5442 5.26399 14.1577 5.81363 13.6028C6.10135 13.3123 6.53693 13.2262 6.91352 13.3854C7.8649 13.7876 8.91373 14 10.0002 14C13.8937 14 17.0002 11.2818 17.0002 8C17.0002 4.7182 13.8937 2 10.0002 2Z" fill="#17AAD9"/>
</svg>
