<svg width="32" height="32" viewBox="0 0 32 32" fill="none" xmlns="http://www.w3.org/2000/svg">
<path d="M0 10C0 4.47715 4.47715 0 10 0H22C27.5228 0 32 4.47715 32 10V22C32 27.5228 27.5228 32 22 32H10C4.47715 32 0 27.5228 0 22V10Z" fill="url(#paint0_linear)"/>
<path fill-rule="evenodd" clip-rule="evenodd" d="M17.1279 11.4011L20.5965 14.8697L14.2663 21.2007C13.5087 21.9582 12.5766 22.518 11.5518 22.8308L8.70806 23.6989C8.53536 23.7516 8.35261 23.6544 8.29989 23.4817C8.2809 23.4194 8.2809 23.353 8.29989 23.2907L9.16788 20.4473C9.48074 19.4224 10.0407 18.4901 10.7985 17.7323L17.1279 11.4011ZM21.8942 8.71605L23.2839 10.1058C23.8196 10.6414 23.8553 11.4877 23.3911 12.0648L23.2839 12.1841L21.5508 13.9166L18.0822 10.448L19.8158 8.71599C20.3898 8.14217 21.3202 8.1422 21.8942 8.71605Z" fill="white"/>
<defs>
<linearGradient id="paint0_linear" x1="-16" y1="16" x2="16" y2="48" gradientUnits="userSpaceOnUse">
<stop stop-color="#70B2FF"/>
<stop offset="1" stop-color="#5C9CE6"/>
</linearGradient>
</defs>
</svg>
