<svg width="24" height="22" viewBox="0 0 24 22" fill="none" xmlns="http://www.w3.org/2000/svg">
<path fill-rule="evenodd" clip-rule="evenodd" d="M0.536632 10.4989C0.536632 4.83902 5.82565 0.5 12.0182 0.5C18.2108 0.5 23.4998 4.83902 23.4998 10.4989C23.4998 16.1589 18.2108 20.4979 12.0182 20.4979C10.6451 20.4979 9.32519 20.288 8.10021 19.9013C6.65538 21.2498 4.55607 21.898 1.98805 21.9989C0.941945 22.04 0.18689 20.9519 0.624916 19.978C1.24632 18.5866 2.04922 16.9915 2.14443 15.6002C1.12759 14.1195 0.536632 12.3721 0.536632 10.4989ZM12.0182 2.5C6.63315 2.5 2.53663 6.21891 2.53663 10.4989C2.53663 12.0359 3.05127 13.4778 3.95849 14.6996C4.08651 14.872 4.15563 15.081 4.15563 15.2957C4.15563 16.9295 3.50437 18.471 2.84121 19.9339C4.89728 19.7155 6.24611 19.0571 7.05946 18.1C7.33263 17.7786 7.77815 17.6631 8.17306 17.8114C9.34527 18.2516 10.6456 18.4979 12.0182 18.4979C17.4033 18.4979 21.4998 14.779 21.4998 10.4989C21.4998 6.21891 17.4033 2.5 12.0182 2.5Z" fill="#17AAD9"/>
</svg>
