<svg width="28" height="28" viewBox="0 0 28 28" fill="none" xmlns="http://www.w3.org/2000/svg">
<path d="M0 14C0 6.26801 6.26801 0 14 0C21.732 0 28 6.26801 28 14C28 21.732 21.732 28 14 28C6.26801 28 0 21.732 0 14Z" fill="url(#paint0_linear)"/>
<path d="M16.3463 10.9861L19.4529 11.291C20.5339 11.3971 20.8654 12.4775 20.0307 13.1873L17.5986 15.2554L18.5015 18.6246C18.798 19.7311 17.878 20.4009 16.9567 19.735L14.0014 17.5992L11.0462 19.735C10.1285 20.3982 9.20483 19.7312 9.50139 18.6246L10.4043 15.2554L7.97214 13.1873C7.13392 12.4745 7.46414 11.3976 8.54974 11.291L11.6558 10.9861L13.0243 7.75798C13.4528 6.74707 14.5503 6.74758 14.9785 7.75809L16.3463 10.9861Z" fill="white"/>
<defs>
<linearGradient id="paint0_linear" x1="-14" y1="14" x2="14" y2="42" gradientUnits="userSpaceOnUse">
<stop stop-color="#FFB73D"/>
<stop offset="1" stop-color="#FFA000"/>
</linearGradient>
</defs>
</svg>
