<svg width="32" height="32" viewBox="0 0 32 32" fill="none" xmlns="http://www.w3.org/2000/svg">
<path d="M0 10C0 4.47715 4.47715 0 10 0H22C27.5228 0 32 4.47715 32 10V22C32 27.5228 27.5228 32 22 32H10C4.47715 32 0 27.5228 0 22V10Z" fill="url(#paint0_linear)"/>
<path d="M11.9998 17.1428C14.5712 17.1428 17.1426 18.1714 17.1426 20.3955V20.549C17.1426 20.8859 17.0976 21.0589 17.0129 21.2173C16.9282 21.3756 16.804 21.4998 16.6457 21.5845C16.4874 21.6691 16.3143 21.7142 15.9774 21.7142H8.02217C7.68524 21.7142 7.5122 21.6691 7.35389 21.5845C7.19559 21.4998 7.07135 21.3756 6.98668 21.2173C6.90202 21.0589 6.85693 20.8859 6.85693 20.549V20.3955C6.85693 18.1714 9.42836 17.1428 11.9998 17.1428ZM19.9998 17.1428C22.5712 17.1428 25.1426 18.1714 25.1426 20.3955V20.549C25.1426 20.8859 25.0976 21.0589 25.0129 21.2173C24.9282 21.3756 24.804 21.4998 24.6457 21.5845C24.4874 21.6691 24.3143 21.7142 23.9774 21.7142L18.9708 21.7149C19.0675 21.4312 19.1195 21.134 19.1364 20.8035L19.1426 20.549V20.3955C19.1426 19.1741 18.7338 18.1586 18.0329 17.3566C18.6575 17.2129 19.3286 17.1428 19.9998 17.1428ZM11.9998 10.2856C13.42 10.2856 14.5712 11.4369 14.5712 12.8571C14.5712 14.2772 13.42 15.4285 11.9998 15.4285C10.5796 15.4285 9.42836 14.2772 9.42836 12.8571C9.42836 11.4369 10.5796 10.2856 11.9998 10.2856ZM19.9998 10.2856C21.42 10.2856 22.5712 11.4369 22.5712 12.8571C22.5712 14.2772 21.42 15.4285 19.9998 15.4285C18.5796 15.4285 17.4284 14.2772 17.4284 12.8571C17.4284 11.4369 18.5796 10.2856 19.9998 10.2856Z" fill="white"/>
<defs>
<linearGradient id="paint0_linear" x1="-16" y1="16" x2="16" y2="48" gradientUnits="userSpaceOnUse">
<stop stop-color="#70B2FF"/>
<stop offset="1" stop-color="#5C9CE6"/>
</linearGradient>
</defs>
</svg>
