<svg width="32" height="32" viewBox="0 0 32 32" fill="none" xmlns="http://www.w3.org/2000/svg">
<path d="M0 10C0 4.47715 4.47715 0 10 0H22C27.5228 0 32 4.47715 32 10V22C32 27.5228 27.5228 32 22 32H10C4.47715 32 0 27.5228 0 22V10Z" fill="url(#paint0_linear)"/>
<path d="M15.9999 9.6001C11.5999 9.6001 7.9999 12.2401 6.3999 16.0001C7.9999 19.7601 11.5999 22.4001 15.9999 22.4001C20.3999 22.4001 23.9999 19.7601 25.5999 16.0001C23.9999 12.2401 20.3999 9.6001 15.9999 9.6001ZM15.9999 20.4001C13.5711 20.4001 11.5999 18.4289 11.5999 16.0001C11.5999 13.5713 13.5711 11.6001 15.9999 11.6001C18.4287 11.6001 20.3999 13.5713 20.3999 16.0001C20.3999 18.4289 18.4287 20.4001 15.9999 20.4001ZM15.9999 13.6001C14.6719 13.6001 13.5999 14.6721 13.5999 16.0001C13.5999 17.3281 14.6719 18.4001 15.9999 18.4001C17.3279 18.4001 18.3999 17.3281 18.3999 16.0001C18.3999 14.6721 17.3279 13.6001 15.9999 13.6001Z" fill="white"/>
<defs>
<linearGradient id="paint0_linear" x1="-16" y1="16" x2="16" y2="48" gradientUnits="userSpaceOnUse">
<stop stop-color="#B1B6BD"/>
<stop offset="1" stop-color="#99A2AD"/>
</linearGradient>
</defs>
</svg>
